<?xml version = "1.0" encoding="utf-8"?>
<svg version="1.1" baseProfile="full" xmlns="http://www.w3.org/2000/svg" xmlns:xlink="http://www.w3.org/1999/xlink" width="853" height="934" viewBox="0 0 853 934" clip="0 853 0 934"><defs><clipPath id="did1"><path d="M7.16667,-4l-0.333333,-0.5l0.333333,-0.5h0.666667l0.333334,-0.5h0.666666l0.333334,-0.5h0.666666l0.333334,-0.5h0.666666l0.333334,0.5h0.666666l0.333334,0.5h0.666666l0.333334,0.5h0.666666l0.333334,0.5l-0.333334,0.5l0.333334,0.5l-0.333334,0.5l0.333334,0.5l-0.333334,0.5l0.333334,0.5l-0.333334,0.5h-0.666666l-0.333334,0.5h-0.666666l-0.333334,0.5h-0.666666l-0.333334,0.5h-0.666666l-0.333334,-0.5h-0.666666l-0.333334,-0.5h-0.666666l-0.333334,-0.5h-0.666667l-0.333333,-0.5l0.333333,-0.5l-0.333333,-0.5l0.333333,-0.5l-0.333333,-0.5l0.333333,-0.5ZL6.43333,-4v4.9h8.13333v-7.8h-8.13333v2.9h0.733333"/></clipPath><clipPath id="did2"><path d="M7.16667,-4l-0.333333,-0.5l0.333333,-0.5h0.666667l0.333334,-0.5h0.666666l0.333334,-0.5h0.666666l0.333334,-0.5h0.666666l0.333334,0.5h0.666666l0.333334,0.5h0.666666l0.333334,0.5h0.666666l0.333334,0.5l-0.333334,0.5l0.333334,0.5l-0.333334,0.5l0.333334,0.5l-0.333334,0.5l0.333334,0.5l-0.333334,0.5h-0.666666l-0.333334,0.5h-0.666666l-0.333334,0.5h-0.666666l-0.333334,0.5h-0.666666l-0.333334,-0.5h-0.666666l-0.333334,-0.5h-0.666666l-0.333334,-0.5h-0.666667l-0.333333,-0.5l0.333333,-0.5l-0.333333,-0.5l0.333333,-0.5l-0.333333,-0.5l0.333333,-0.5Z"/></clipPath><clipPath id="did3"><path d="M-0.833333,-39l-0.333333,-0.5l0.333333,-0.5h0.666667l0.333333,0.5h0.666667l0.333333,-0.5h0.666667l0.333334,0.5h0.666667l0.333334,-0.5h0.666667l0.333333,0.5h0.666667l0.333333,-0.5h0.666667l0.333333,0.5h0.666667l0.333333,-0.5h0.666667l0.333334,0.5h0.666666l0.333334,-0.5h0.666666l0.333334,0.5h0.666666l0.333334,-0.5h0.666666l0.333334,0.5h0.666666l0.333334,-0.5h0.666666l0.333334,0.5h0.666666l0.333334,-0.5h0.666666l0.333333,0.5h0.666668l0.333332,-0.5h0.666668l0.333332,0.5h0.666668l0.333332,-0.5h0.666668l0.333332,0.5h0.666668l0.333332,-0.5h0.666668l0.333332,0.5h0.666668l0.333332,-0.5h0.666668l0.333332,0.5h0.666668l0.333332,-0.5h0.666668l0.333332,0.5h0.666668l0.333332,-0.5h0.666668l0.333332,0.5h0.666668l0.333332,-0.5h0.666668l0.333332,0.5h0.666668l0.333332,0.5l-0.333332,0.5l0.333332,0.5l-0.333332,0.5l0.333332,0.5l-0.333332,0.5l0.333332,0.5l-0.333332,0.5l0.333332,0.5l-0.333332,0.5l0.333332,0.5l-0.333332,0.5l0.333332,0.5l-0.333332,0.5l0.333332,0.5l-0.333332,0.5l0.333332,0.5l-0.333332,0.5l0.333332,0.5l-0.333332,0.5l0.333332,0.5l-0.333332,0.5l0.333332,0.5l-0.333332,0.5l0.333332,0.5l-0.333332,0.5l0.333332,0.5l-0.333332,0.5l0.333332,0.5l-0.333332,0.5l0.333332,0.5l-0.333332,0.5l0.333332,0.5l-0.333332,0.5l0.333332,0.5l-0.333332,0.5l0.333332,0.5l-0.333332,0.5l0.333332,0.5l-0.333332,0.5l0.333332,0.5l-0.333332,0.5l0.333332,0.5l-0.333332,0.5l0.333332,0.5l-0.333332,0.5l0.333332,0.5l-0.333332,0.5l0.333332,0.5l-0.333332,0.5l0.333332,0.5l-0.333332,0.5l0.333332,0.5l-0.333332,0.5l0.333332,0.5l-0.333332,0.5l0.333332,0.5l-0.333332,0.5l0.333332,0.5l-0.333332,0.5l0.333332,0.5l-0.333332,0.5l0.333332,0.5l-0.333332,0.5l0.333332,0.5l-0.333332,0.5l0.333332,0.5l-0.333332,0.5l0.333332,0.5l-0.333332,0.5l0.333332,0.5l-0.333332,0.5l0.333332,0.5l-0.333332,0.5l0.333332,0.5l-0.333332,0.5l0.333332,0.5l-0.333332,0.5l0.333332,0.5l-0.333332,0.5h-0.666668l-0.333332,-0.5h-0.666668l-0.333332,0.5h-0.666668l-0.333332,-0.5h-0.666668l-0.333332,0.5h-0.666668l-0.333332,-0.5h-0.666668l-0.333332,0.5h-0.666668l-0.333332,-0.5h-0.666668l-0.333332,0.5h-0.666668l-0.333332,-0.5h-0.666668l-0.333332,0.5h-0.666668l-0.333332,-0.5h-0.666668l-0.333332,0.5h-0.666668l-0.333332,-0.5h-0.666668l-0.333332,0.5h-0.666668l-0.333333,-0.5h-0.666666l-0.333334,0.5h-0.666666l-0.333334,-0.5h-0.666666l-0.333334,0.5h-0.666666l-0.333334,-0.5h-0.666666l-0.333334,0.5h-0.666666l-0.333334,-0.5h-0.666666l-0.333334,0.5h-0.666666l-0.333334,-0.5h-0.666667l-0.333333,0.5h-0.666667l-0.333333,-0.5h-0.666667l-0.333333,0.5h-0.666667l-0.333333,-0.5h-0.666667l-0.333334,0.5h-0.666667l-0.333334,-0.5h-0.666667l-0.333333,0.5h-0.666667l-0.333333,-0.5h-0.666667l-0.333333,-0.5l0.333333,-0.5l-0.333333,-0.5l0.333333,-0.5l-0.333333,-0.5l0.333333,-0.5l-0.333333,-0.5l0.333333,-0.5l-0.333333,-0.5l0.333333,-0.5l-0.333333,-0.5l0.333333,-0.5l-0.333333,-0.5l0.333333,-0.5l-0.333333,-0.5l0.333333,-0.5l-0.333333,-0.5l0.333333,-0.5l-0.333333,-0.5l0.333333,-0.5l-0.333333,-0.5l0.333333,-0.5l-0.333333,-0.5l0.333333,-0.5l-0.333333,-0.5l0.333333,-0.5l-0.333333,-0.5l0.333333,-0.5l-0.333333,-0.5l0.333333,-0.5l-0.333333,-0.5l0.333333,-0.5l-0.333333,-0.5l0.333333,-0.5l-0.333333,-0.5l0.333333,-0.5l-0.333333,-0.5l0.333333,-0.5l-0.333333,-0.5l0.333333,-0.5l-0.333333,-0.5l0.333333,-0.5l-0.333333,-0.5l0.333333,-0.5l-0.333333,-0.5l0.333333,-0.5l-0.333333,-0.5l0.333333,-0.5l-0.333333,-0.5l0.333333,-0.5l-0.333333,-0.5l0.333333,-0.5l-0.333333,-0.5l0.333333,-0.5l-0.333333,-0.5l0.333333,-0.5l-0.333333,-0.5l0.333333,-0.5l-0.333333,-0.5l0.333333,-0.5l-0.333333,-0.5l0.333333,-0.5l-0.333333,-0.5l0.333333,-0.5l-0.333333,-0.5l0.333333,-0.5l-0.333333,-0.5l0.333333,-0.5l-0.333333,-0.5l0.333333,-0.5l-0.333333,-0.5l0.333333,-0.5l-0.333333,-0.5l0.333333,-0.5l-0.333333,-0.5l0.333333,-0.5l-0.333333,-0.5l0.333333,-0.5Z"/></clipPath><clipPath id="did4"><path d="M-0.833333,-39l-0.333333,-0.5l0.333333,-0.5h0.666667l0.333333,0.5h0.666667l0.333333,-0.5h0.666667l0.333334,0.5h0.666667l0.333334,-0.5h0.666667l0.333333,0.5h0.666667l0.333333,-0.5h0.666667l0.333333,0.5h0.666667l0.333333,-0.5h0.666667l0.333334,0.5h0.666666l0.333334,-0.5h0.666666l0.333334,0.5h0.666666l0.333334,-0.5h0.666666l0.333334,0.5h0.666666l0.333334,-0.5h0.666666l0.333334,0.5h0.666666l0.333334,-0.5h0.666666l0.333333,0.5h0.666668l0.333332,-0.5h0.666668l0.333332,0.5h0.666668l0.333332,-0.5h0.666668l0.333332,0.5h0.666668l0.333332,-0.5h0.666668l0.333332,0.5h0.666668l0.333332,-0.5h0.666668l0.333332,0.5h0.666668l0.333332,-0.5h0.666668l0.333332,0.5h0.666668l0.333332,-0.5h0.666668l0.333332,0.5h0.666668l0.333332,-0.5h0.666668l0.333332,0.5h0.666668l0.333332,0.5l-0.333332,0.5l0.333332,0.5l-0.333332,0.5l0.333332,0.5l-0.333332,0.5l0.333332,0.5l-0.333332,0.5l0.333332,0.5l-0.333332,0.5l0.333332,0.5l-0.333332,0.5l0.333332,0.5l-0.333332,0.5l0.333332,0.5l-0.333332,0.5l0.333332,0.5l-0.333332,0.5l0.333332,0.5l-0.333332,0.5l0.333332,0.5l-0.333332,0.5l0.333332,0.5l-0.333332,0.5l0.333332,0.5l-0.333332,0.5l0.333332,0.5l-0.333332,0.5l0.333332,0.5l-0.333332,0.5l0.333332,0.5l-0.333332,0.5l0.333332,0.5l-0.333332,0.5l0.333332,0.5l-0.333332,0.5l0.333332,0.5l-0.333332,0.5l0.333332,0.5l-0.333332,0.5l0.333332,0.5l-0.333332,0.5l0.333332,0.5l-0.333332,0.5l0.333332,0.5l-0.333332,0.5l0.333332,0.5l-0.333332,0.5l0.333332,0.5l-0.333332,0.5l0.333332,0.5l-0.333332,0.5l0.333332,0.5l-0.333332,0.5l0.333332,0.5l-0.333332,0.5l0.333332,0.5l-0.333332,0.5l0.333332,0.5l-0.333332,0.5l0.333332,0.5l-0.333332,0.5l0.333332,0.5l-0.333332,0.5l0.333332,0.5l-0.333332,0.5l0.333332,0.5l-0.333332,0.5l0.333332,0.5l-0.333332,0.5l0.333332,0.5l-0.333332,0.5l0.333332,0.5l-0.333332,0.5l0.333332,0.5l-0.333332,0.5l0.333332,0.5l-0.333332,0.5l0.333332,0.5l-0.333332,0.5h-0.666668l-0.333332,-0.5h-0.666668l-0.333332,0.5h-0.666668l-0.333332,-0.5h-0.666668l-0.333332,0.5h-0.666668l-0.333332,-0.5h-0.666668l-0.333332,0.5h-0.666668l-0.333332,-0.5h-0.666668l-0.333332,0.5h-0.666668l-0.333332,-0.5h-0.666668l-0.333332,0.5h-0.666668l-0.333332,-0.5h-0.666668l-0.333332,0.5h-0.666668l-0.333332,-0.5h-0.666668l-0.333332,0.5h-0.666668l-0.333333,-0.5h-0.666666l-0.333334,0.5h-0.666666l-0.333334,-0.5h-0.666666l-0.333334,0.5h-0.666666l-0.333334,-0.5h-0.666666l-0.333334,0.5h-0.666666l-0.333334,-0.5h-0.666666l-0.333334,0.5h-0.666666l-0.333334,-0.5h-0.666667l-0.333333,0.5h-0.666667l-0.333333,-0.5h-0.666667l-0.333333,0.5h-0.666667l-0.333333,-0.5h-0.666667l-0.333334,0.5h-0.666667l-0.333334,-0.5h-0.666667l-0.333333,0.5h-0.666667l-0.333333,-0.5h-0.666667l-0.333333,-0.5l0.333333,-0.5l-0.333333,-0.5l0.333333,-0.5l-0.333333,-0.5l0.333333,-0.5l-0.333333,-0.5l0.333333,-0.5l-0.333333,-0.5l0.333333,-0.5l-0.333333,-0.5l0.333333,-0.5l-0.333333,-0.5l0.333333,-0.5l-0.333333,-0.5l0.333333,-0.5l-0.333333,-0.5l0.333333,-0.5l-0.333333,-0.5l0.333333,-0.5l-0.333333,-0.5l0.333333,-0.5l-0.333333,-0.5l0.333333,-0.5l-0.333333,-0.5l0.333333,-0.5l-0.333333,-0.5l0.333333,-0.5l-0.333333,-0.5l0.333333,-0.5l-0.333333,-0.5l0.333333,-0.5l-0.333333,-0.5l0.333333,-0.5l-0.333333,-0.5l0.333333,-0.5l-0.333333,-0.5l0.333333,-0.5l-0.333333,-0.5l0.333333,-0.5l-0.333333,-0.5l0.333333,-0.5l-0.333333,-0.5l0.333333,-0.5l-0.333333,-0.5l0.333333,-0.5l-0.333333,-0.5l0.333333,-0.5l-0.333333,-0.5l0.333333,-0.5l-0.333333,-0.5l0.333333,-0.5l-0.333333,-0.5l0.333333,-0.5l-0.333333,-0.5l0.333333,-0.5l-0.333333,-0.5l0.333333,-0.5l-0.333333,-0.5l0.333333,-0.5l-0.333333,-0.5l0.333333,-0.5l-0.333333,-0.5l0.333333,-0.5l-0.333333,-0.5l0.333333,-0.5l-0.333333,-0.5l0.333333,-0.5l-0.333333,-0.5l0.333333,-0.5l-0.333333,-0.5l0.333333,-0.5l-0.333333,-0.5l0.333333,-0.5l-0.333333,-0.5l0.333333,-0.5l-0.333333,-0.5l0.333333,-0.5Z"/></clipPath><clipPath id="did5"><path d="M0.166667,-16.5l-0.333333,-0.5l0.333333,-0.5h0.666667l0.333333,-0.5h0.666667l0.333334,-0.5l-0.333334,-0.5l0.333334,-0.5h0.666667l0.333334,0.5h0.666667l0.333333,-0.5h0.666667l0.333333,-0.5h0.666667l0.333333,0.5h0.666667l0.333333,0.5l-0.333333,0.5l0.333333,0.5l-0.333333,0.5h-0.666667l-0.333333,0.5l0.333333,0.5l-0.333333,0.5l0.333333,0.5l-0.333333,0.5l0.333333,0.5l-0.333333,0.5l0.333333,0.5l-0.333333,0.5l0.333333,0.5l-0.333333,0.5h-0.666667l-0.333333,-0.5h-0.666667l-0.333333,-0.5h-0.666667l-0.333334,0.5h-0.666667l-0.333334,-0.5l0.333334,-0.5l-0.333334,-0.5h-0.666667l-0.333333,-0.5l0.333333,-0.5l-0.333333,-0.5h-0.666667l-0.333333,-0.5Z"/></clipPath><clipPath id="did6"><path d="M4.16667,-19.5l-0.333333,-0.5l0.333333,-0.5h0.666667l0.333333,-0.5h0.666667l0.333333,0.5h0.666667l0.333333,0.5h0.666667l0.333334,0.5h0.666666l0.333334,-0.5h0.666666l0.333334,0.5h0.666666l0.333334,0.5h0.666666l0.333334,-0.5h0.666666l0.333334,0.5h0.666666l0.333334,0.5l-0.333334,0.5l0.333334,0.5l-0.333334,0.5l0.333334,0.5l-0.333334,0.5l0.333334,0.5l-0.333334,0.5l0.333334,0.5h0.666666l0.333334,0.5l-0.333334,0.5l0.333334,0.5l-0.333334,0.5l0.333334,0.5l-0.333334,0.5h-0.666666l-0.333334,0.5h-0.666666l-0.333334,-0.5l0.333334,-0.5l-0.333334,-0.5h-0.666666l-0.333334,-0.5h-0.666666l-0.333334,0.5h-0.666666l-0.333334,0.5l0.333334,0.5l-0.333334,0.5l0.333334,0.5l-0.333334,0.5h-0.666666l-0.333334,-0.5l0.333334,-0.5l-0.333334,-0.5h-0.666666l-0.333334,-0.5h-0.666667l-0.333333,-0.5l0.333333,-0.5l-0.333333,-0.5l0.333333,-0.5l-0.333333,-0.5l0.333333,-0.5l-0.333333,-0.5l0.333333,-0.5l-0.333333,-0.5l0.333333,-0.5l-0.333333,-0.5l0.333333,-0.5l-0.333333,-0.5l0.333333,-0.5l-0.333333,-0.5h-0.666667l-0.333333,-0.5h-0.666667l-0.333333,0.5Z"/></clipPath><clipPath id="did7"><path d="M-1.83333,-39.5l-0.333334,-0.5l0.333334,-0.5h0.666667l0.333333,-0.5h0.666667l0.333333,0.5h0.666667l0.333333,0.5l-0.333333,0.5h-0.666667l-0.333333,0.5l0.333333,0.5h0.666667l0.333333,0.5h0.666667l0.333334,0.5h0.666667l0.333334,0.5h0.666667l0.333333,0.5h0.666667l0.333333,0.5h0.666667l0.333333,-0.5h0.666667l0.333333,-0.5h0.666667l0.333334,-0.5h0.666666l0.333334,-0.5l-0.333334,-0.5l0.333334,-0.5h0.666666l0.333334,-0.5h0.666666l0.333334,0.5h0.666666l0.333334,-0.5h0.666666l0.333334,0.5l-0.333334,0.5l0.333334,0.5l-0.333334,0.5h-0.666666l-0.333334,0.5h-0.666666l-0.333334,-0.5h-0.666666l-0.333334,0.5h-0.666666l-0.333334,0.5h-0.666666l-0.333334,0.5h-0.666667l-0.333333,0.5h-0.666667l-0.333333,0.5h-0.666667l-0.333333,-0.5h-0.666667l-0.333333,0.5l0.333333,0.5l-0.333333,0.5l0.333333,0.5l-0.333333,0.5l0.333333,0.5h0.666667l0.333333,0.5l-0.333333,0.5l0.333333,0.5l-0.333333,0.5l0.333333,0.5l-0.333333,0.5l0.333333,0.5h0.666667l0.333333,0.5l-0.333333,0.5h-0.666667l-0.333333,0.5l0.333333,0.5l-0.333333,0.5l0.333333,0.5l-0.333333,0.5h-0.666667l-0.333333,-0.5h-0.666667l-0.333334,-0.5h-0.666667l-0.333334,-0.5l0.333334,-0.5l-0.333334,-0.5l0.333334,-0.5h0.666667l0.333334,-0.5l-0.333334,-0.5l0.333334,-0.5h0.666667l0.333333,-0.5l-0.333333,-0.5l0.333333,-0.5l-0.333333,-0.5h-0.666667l-0.333334,-0.5h-0.666667l-0.333334,-0.5h-0.666667l-0.333333,-0.5h-0.666667l-0.333333,-0.5h-0.666667l-0.333333,0.5h-0.666667l-0.333334,-0.5l0.333334,-0.5l-0.333334,-0.5l0.333334,-0.5l-0.333334,-0.5l0.333334,-0.5l-0.333334,-0.5l0.333334,-0.5l-0.333334,-0.5l0.333334,-0.5l-0.333334,-0.5Z"/></clipPath><clipPath id="did8"><path d="M8.16667,-34.5l-0.333334,-0.5l0.333334,-0.5h0.666666l0.333334,-0.5h0.666666l0.333334,-0.5h0.666666l0.333334,0.5h0.666666l0.333334,0.5h0.666666l0.333334,-0.5h0.666666l0.333334,-0.5h0.666666l0.333334,-0.5h0.666666l0.333333,-0.5l-0.333333,-0.5l0.333333,-0.5h0.666668l0.333332,0.5h0.666668l0.333332,-0.5h0.666668l0.333332,-0.5h0.666668l0.333332,-0.5h0.666668l0.333332,0.5h0.666668l0.333332,0.5h0.666668l0.333332,-0.5h0.666668l0.333332,-0.5h0.666668l0.333332,-0.5h0.666668l0.333332,0.5h0.666668l0.333332,0.5h0.666668l0.333332,-0.5h0.666668l0.333332,0.5h0.666668l0.333332,-0.5h0.666668l0.333332,0.5h0.666668l0.333334,0.5l-0.333334,0.5l0.333334,0.5l-0.333334,0.5l0.333334,0.5l-0.333334,0.5l0.333334,0.5l-0.333334,0.5l0.333334,0.5l-0.333334,0.5l0.333334,0.5l-0.333334,0.5l0.333334,0.5l-0.333334,0.5l0.333334,0.5l-0.333334,0.5l0.333334,0.5l-0.333334,0.5l0.333334,0.5l-0.333334,0.5l0.333334,0.5l-0.333334,0.5l0.333334,0.5l-0.333334,0.5l0.333334,0.5l-0.333334,0.5l0.333334,0.5l-0.333334,0.5l0.333334,0.5l-0.333334,0.5l0.333334,0.5l-0.333334,0.5l0.333334,0.5l-0.333334,0.5l0.333334,0.5l-0.333334,0.5l0.333334,0.5l-0.333334,0.5l0.333334,0.5l-0.333334,0.5l0.333334,0.5l-0.333334,0.5l0.333334,0.5l-0.333334,0.5l0.333334,0.5l-0.333334,0.5l0.333334,0.5l-0.333334,0.5l0.333334,0.5l-0.333334,0.5l0.333334,0.5l-0.333334,0.5l0.333334,0.5l-0.333334,0.5l0.333334,0.5l-0.333334,0.5l0.333334,0.5l-0.333334,0.5l0.333334,0.5l-0.333334,0.5l0.333334,0.5l-0.333334,0.5l0.333334,0.5l-0.333334,0.5l0.333334,0.5l-0.333334,0.5l0.333334,0.5l-0.333334,0.5l0.333334,0.5l-0.333334,0.5l0.333334,0.5l-0.333334,0.5l0.333334,0.5l-0.333334,0.5l0.333334,0.5l-0.333334,0.5l0.333334,0.5l-0.333334,0.5l0.333334,0.5l-0.333334,0.5h-0.666668l-0.333332,0.5h-0.666668l-0.333332,-0.5h-0.666668l-0.333332,0.5h-0.666668l-0.333332,-0.5h-0.666668l-0.333332,0.5h-0.666668l-0.333332,-0.5h-0.666668l-0.333332,0.5h-0.666668l-0.333332,-0.5h-0.666668l-0.333332,0.5h-0.666668l-0.333332,-0.5h-0.666668l-0.333332,0.5h-0.666668l-0.333332,-0.5h-0.666668l-0.333332,0.5h-0.666668l-0.333332,-0.5h-0.666668l-0.333332,-0.5h-0.666668l-0.333333,-0.5l0.333333,-0.5l-0.333333,-0.5h-0.666666l-0.333334,-0.5l0.333334,-0.5l-0.333334,-0.5h-0.666666l-0.333334,-0.5h-0.666666l-0.333334,-0.5l0.333334,-0.5h0.666666l0.333334,-0.5h0.666666l0.333334,-0.5h0.666666l0.333333,-0.5l-0.333333,-0.5l0.333333,-0.5l-0.333333,-0.5h-0.666666l-0.333334,-0.5l0.333334,-0.5h0.666666l0.333333,-0.5l-0.333333,-0.5h-0.666666l-0.333334,-0.5l0.333334,-0.5l-0.333334,-0.5l0.333334,-0.5l-0.333334,-0.5l0.333334,-0.5l-0.333334,-0.5l0.333334,-0.5l-0.333334,-0.5l0.333334,-0.5h0.666666l0.333333,-0.5l-0.333333,-0.5l0.333333,-0.5l-0.333333,-0.5l0.333333,-0.5l-0.333333,-0.5l0.333333,-0.5l-0.333333,-0.5l0.333333,-0.5l-0.333333,-0.5h-0.666666l-0.333334,-0.5h-0.666666l-0.333334,-0.5h-0.666666l-0.333334,-0.5h-0.666666l-0.333334,0.5h-0.666666l-0.333334,-0.5h-0.666666l-0.333334,-0.5h-0.666666l-0.333334,0.5l0.333334,0.5l-0.333334,0.5h-0.666666l-0.333334,-0.5l0.333334,-0.5l-0.333334,-0.5l0.333334,-0.5l-0.333334,-0.5l0.333334,-0.5h0.666666l0.333334,-0.5l-0.333334,-0.5l0.333334,-0.5l-0.333334,-0.5l0.333334,-0.5h0.666666l0.333334,-0.5l-0.333334,-0.5l0.333334,-0.5h0.666666l0.333334,-0.5l-0.333334,-0.5l0.333334,-0.5h0.666666l0.333334,-0.5h0.666666l0.333334,-0.5h0.666666l0.333334,-0.5h0.666666l0.333334,-0.5h0.666666l0.333333,-0.5h0.666668l0.333332,-0.5l-0.333332,-0.5h-0.666668l-0.333333,-0.5h-0.666666l-0.333334,-0.5h-0.666666l-0.333334,-0.5h-0.666666l-0.333334,0.5h-0.666666l-0.333334,-0.5h-0.666666l-0.333334,0.5h-0.666666l-0.333334,-0.5h-0.666666l-0.333334,-0.5h-0.666666l-0.333334,-0.5Z"/></clipPath><clipPath id="did9"><path d="M11.1667,-11l-0.333334,-0.5l0.333334,-0.5h0.666666l0.333334,0.5h0.666666l0.333334,0.5l-0.333334,0.5l0.333334,0.5l-0.333334,0.5h-0.666666l-0.333334,-0.5h-0.666666l-0.333334,-0.5Z"/></clipPath><clipPath id="did10"><path d="M-0.833333,-7l-0.333333,-0.5l0.333333,-0.5h0.666667l0.333333,-0.5h0.666667l0.333333,-0.5h0.666667l0.333334,0.5h0.666667l0.333334,0.5h0.666667l0.333333,-0.5h0.666667l0.333333,-0.5h0.666667l0.333333,0.5l-0.333333,0.5l0.333333,0.5l-0.333333,0.5h-0.666667l-0.333333,0.5h-0.666667l-0.333333,0.5l0.333333,0.5h0.666667l0.333333,0.5l-0.333333,0.5l0.333333,0.5h0.666667l0.333333,0.5l-0.333333,0.5l0.333333,0.5l-0.333333,0.5h-0.666667l-0.333333,0.5h-0.666667l-0.333333,0.5h-0.666667l-0.333334,-0.5h-0.666667l-0.333334,0.5h-0.666667l-0.333333,-0.5h-0.666667l-0.333333,0.5h-0.666667l-0.333333,-0.5l0.333333,-0.5l-0.333333,-0.5l0.333333,-0.5l-0.333333,-0.5l0.333333,-0.5l-0.333333,-0.5l0.333333,-0.5l-0.333333,-0.5l0.333333,-0.5l-0.333333,-0.5Z"/></clipPath><clipPath id="did11"><path d="M7.16667,-10l-0.333333,-0.5l0.333333,-0.5h0.666667l0.333334,0.5l-0.333334,0.5Z"/></clipPath><clipPath id="did12"><path d="M7.16667,-4l-0.333333,-0.5l0.333333,-0.5h0.666667l0.333334,-0.5h0.666666l0.333334,-0.5h0.666666l0.333334,-0.5h0.666666l0.333334,0.5h0.666666l0.333334,0.5h0.666666l0.333334,0.5h0.666666l0.333334,0.5l-0.333334,0.5l0.333334,0.5l-0.333334,0.5l0.333334,0.5l-0.333334,0.5l0.333334,0.5l-0.333334,0.5h-0.666666l-0.333334,0.5h-0.666666l-0.333334,0.5h-0.666666l-0.333334,0.5h-0.666666l-0.333334,-0.5h-0.666666l-0.333334,-0.5h-0.666666l-0.333334,-0.5h-0.666667l-0.333333,-0.5l0.333333,-0.5l-0.333333,-0.5l0.333333,-0.5l-0.333333,-0.5l0.333333,-0.5Z"/></clipPath><clipPath id="did13"><path d="M7.16667,-4l-0.333333,-0.5l0.333333,-0.5h0.666667l0.333334,-0.5h0.666666l0.333334,-0.5h0.666666l0.333334,-0.5h0.666666l0.333334,0.5h0.666666l0.333334,0.5h0.666666l0.333334,0.5h0.666666l0.333334,0.5l-0.333334,0.5l0.333334,0.5l-0.333334,0.5l0.333334,0.5l-0.333334,0.5l0.333334,0.5l-0.333334,0.5h-0.666666l-0.333334,0.5h-0.666666l-0.333334,0.5h-0.666666l-0.333334,0.5h-0.666666l-0.333334,-0.5h-0.666666l-0.333334,-0.5h-0.666666l-0.333334,-0.5h-0.666667l-0.333333,-0.5l0.333333,-0.5l-0.333333,-0.5l0.333333,-0.5l-0.333333,-0.5l0.333333,-0.5Z"/></clipPath></defs><g fill="None" stroke="None" transform="matrix(1,0,0,1,0,0)"><path transform="matrix(110.851,0,0,128,-737.161,851.2)" clip-path="url(#did1)" d="M7.16667,-4l-0.333333,-0.5l0.333333,-0.5h0.666667l0.333334,-0.5h0.666666l0.333334,-0.5h0.666666l0.333334,-0.5h0.666666l0.333334,0.5h0.666666l0.333334,0.5h0.666666l0.333334,0.5h0.666666l0.333334,0.5l-0.333334,0.5l0.333334,0.5l-0.333334,0.5l0.333334,0.5l-0.333334,0.5l0.333334,0.5l-0.333334,0.5h-0.666666l-0.333334,0.5h-0.666666l-0.333334,0.5h-0.666666l-0.333334,0.5h-0.666666l-0.333334,-0.5h-0.666666l-0.333334,-0.5h-0.666666l-0.333334,-0.5h-0.666667l-0.333333,-0.5l0.333333,-0.5l-0.333333,-0.5l0.333333,-0.5l-0.333333,-0.5l0.333333,-0.5Z" stroke="LightBlue" stroke-width="0.2" fill="none"/><g transform="matrix(110.851,0,0,128,-737.161,851.2)"><g clip-path="url(#did2)"><rect x="5.88" y="-7.38" width="9.24" height="8.76" stroke="none" fill="Black"/><path d="M4.83333,-7.5v0l0.333333,0.5h0.666667l0.333333,-0.5" stroke="Plum" stroke-width="0.0078125" fill="none"/><path d="M4.83333,-6.5v0l0.333333,0.5h0.666667l0.333333,-0.5" stroke="Plum" stroke-width="0.0078125" fill="none"/><path d="M4.83333,-5.5v0l0.333333,0.5h0.666667l0.333333,-0.5" stroke="Plum" stroke-width="0.0078125" fill="none"/><path d="M4.83333,-4.5v0l0.333333,0.5h0.666667l0.333333,-0.5" stroke="Plum" stroke-width="0.0078125" fill="none"/><path d="M4.83333,-3.5v0l0.333333,0.5h0.666667l0.333333,-0.5" stroke="Plum" stroke-width="0.0078125" fill="none"/><path d="M4.83333,-2.5v0l0.333333,0.5h0.666667l0.333333,-0.5" stroke="Plum" stroke-width="0.0078125" fill="none"/><path d="M4.83333,-1.5v0l0.333333,0.5h0.666667l0.333333,-0.5" stroke="Plum" stroke-width="0.0078125" fill="none"/><path d="M4.83333,-0.5v0l0.333333,0.5h0.666667l0.333333,-0.5" stroke="Plum" stroke-width="0.0078125" fill="none"/><path d="M4.83333,0.5v0l0.333333,0.5h0.666667l0.333333,-0.5" stroke="Plum" stroke-width="0.0078125" fill="none"/><path d="M4.83333,1.5v0l0.333333,0.5h0.666667l0.333333,-0.5" stroke="Plum" stroke-width="0.0078125" fill="none"/><path d="M5.83333,-7v0l0.333333,0.5h0.666667l0.333333,-0.5" stroke="Plum" stroke-width="0.0078125" fill="none"/><path d="M5.83333,-6v0l0.333333,0.5h0.666667l0.333333,-0.5" stroke="Plum" stroke-width="0.0078125" fill="none"/><path d="M5.83333,-5v0l0.333333,0.5h0.666667l0.333333,-0.5" stroke="Plum" stroke-width="0.0078125" fill="none"/><path d="M5.83333,-4v0l0.333333,0.5h0.666667l0.333333,-0.5" stroke="Plum" stroke-width="0.0078125" fill="none"/><path d="M5.83333,-3v0l0.333333,0.5h0.666667l0.333333,-0.5" stroke="Plum" stroke-width="0.0078125" fill="none"/><path d="M5.83333,-2v0l0.333333,0.5h0.666667l0.333333,-0.5" stroke="Plum" stroke-width="0.0078125" fill="none"/><path d="M5.83333,-1v0l0.333333,0.5h0.666667l0.333333,-0.5" stroke="Plum" stroke-width="0.0078125" fill="none"/><path d="M5.83333,0v0l0.333333,0.5h0.666667l0.333333,-0.5" stroke="Plum" stroke-width="0.0078125" fill="none"/><path d="M5.83333,1v0l0.333333,0.5h0.666667l0.333333,-0.5" stroke="Plum" stroke-width="0.0078125" fill="none"/><path d="M5.83333,2v0l0.333333,0.5h0.666667l0.333333,-0.5" stroke="Plum" stroke-width="0.0078125" fill="none"/><path d="M6.83333,-7.5v0l0.333333,0.5h0.666667l0.333334,-0.5" stroke="Plum" stroke-width="0.0078125" fill="none"/><path d="M6.83333,-6.5v0l0.333333,0.5h0.666667l0.333334,-0.5" stroke="Plum" stroke-width="0.0078125" fill="none"/><path d="M6.83333,-5.5v0l0.333333,0.5h0.666667l0.333334,-0.5" stroke="Plum" stroke-width="0.0078125" fill="none"/><path d="M6.83333,-4.5v0l0.333333,0.5h0.666667l0.333334,-0.5" stroke="Plum" stroke-width="0.0078125" fill="none"/><path d="M6.83333,-3.5v0l0.333333,0.5h0.666667l0.333334,-0.5" stroke="Plum" stroke-width="0.0078125" fill="none"/><path d="M6.83333,-2.5v0l0.333333,0.5h0.666667l0.333334,-0.5" stroke="Plum" stroke-width="0.0078125" fill="none"/><path d="M6.83333,-1.5v0l0.333333,0.5h0.666667l0.333334,-0.5" stroke="Plum" stroke-width="0.0078125" fill="none"/><path d="M6.83333,-0.5v0l0.333333,0.5h0.666667l0.333334,-0.5" stroke="Plum" stroke-width="0.0078125" fill="none"/><path d="M6.83333,0.5v0l0.333333,0.5h0.666667l0.333334,-0.5" stroke="Plum" stroke-width="0.0078125" fill="none"/><path d="M6.83333,1.5v0l0.333333,0.5h0.666667l0.333334,-0.5" stroke="Plum" stroke-width="0.0078125" fill="none"/><path d="M7.83333,-7v0l0.333334,0.5h0.666666l0.333334,-0.5" stroke="Plum" stroke-width="0.0078125" fill="none"/><path d="M7.83333,-6v0l0.333334,0.5h0.666666l0.333334,-0.5" stroke="Plum" stroke-width="0.0078125" fill="none"/><path d="M7.83333,-5v0l0.333334,0.5h0.666666l0.333334,-0.5" stroke="Plum" stroke-width="0.0078125" fill="none"/><path d="M7.83333,-4v0l0.333334,0.5h0.666666l0.333334,-0.5" stroke="Plum" stroke-width="0.0078125" fill="none"/><path d="M7.83333,-3v0l0.333334,0.5h0.666666l0.333334,-0.5" stroke="Plum" stroke-width="0.0078125" fill="none"/><path d="M7.83333,-2v0l0.333334,0.5h0.666666l0.333334,-0.5" stroke="Plum" stroke-width="0.0078125" fill="none"/><path d="M7.83333,-1v0l0.333334,0.5h0.666666l0.333334,-0.5" stroke="Plum" stroke-width="0.0078125" fill="none"/><path d="M7.83333,0v0l0.333334,0.5h0.666666l0.333334,-0.5" stroke="Plum" stroke-width="0.0078125" fill="none"/><path d="M7.83333,1v0l0.333334,0.5h0.666666l0.333334,-0.5" stroke="Plum" stroke-width="0.0078125" fill="none"/><path d="M7.83333,2v0l0.333334,0.5h0.666666l0.333334,-0.5" stroke="Plum" stroke-width="0.0078125" fill="none"/><path d="M8.83333,-7.5v0l0.333334,0.5h0.666666l0.333334,-0.5" stroke="Plum" stroke-width="0.0078125" fill="none"/><path d="M8.83333,-6.5v0l0.333334,0.5h0.666666l0.333334,-0.5" stroke="Plum" stroke-width="0.0078125" fill="none"/><path d="M8.83333,-5.5v0l0.333334,0.5h0.666666l0.333334,-0.5" stroke="Plum" stroke-width="0.0078125" fill="none"/><path d="M8.83333,-4.5v0l0.333334,0.5h0.666666l0.333334,-0.5" stroke="Plum" stroke-width="0.0078125" fill="none"/><path d="M8.83333,-3.5v0l0.333334,0.5h0.666666l0.333334,-0.5" stroke="Plum" stroke-width="0.0078125" fill="none"/><path d="M8.83333,-2.5v0l0.333334,0.5h0.666666l0.333334,-0.5" stroke="Plum" stroke-width="0.0078125" fill="none"/><path d="M8.83333,-1.5v0l0.333334,0.5h0.666666l0.333334,-0.5" stroke="Plum" stroke-width="0.0078125" fill="none"/><path d="M8.83333,-0.5v0l0.333334,0.5h0.666666l0.333334,-0.5" stroke="Plum" stroke-width="0.0078125" fill="none"/><path d="M8.83333,0.5v0l0.333334,0.5h0.666666l0.333334,-0.5" stroke="Plum" stroke-width="0.0078125" fill="none"/><path d="M8.83333,1.5v0l0.333334,0.5h0.666666l0.333334,-0.5" stroke="Plum" stroke-width="0.0078125" fill="none"/><path d="M9.83333,-7v0l0.333334,0.5h0.666666l0.333334,-0.5" stroke="Plum" stroke-width="0.0078125" fill="none"/><path d="M9.83333,-6v0l0.333334,0.5h0.666666l0.333334,-0.5" stroke="Plum" stroke-width="0.0078125" fill="none"/><path d="M9.83333,-5v0l0.333334,0.5h0.666666l0.333334,-0.5" stroke="Plum" stroke-width="0.0078125" fill="none"/><path d="M9.83333,-4v0l0.333334,0.5h0.666666l0.333334,-0.5" stroke="Plum" stroke-width="0.0078125" fill="none"/><path d="M9.83333,-3v0l0.333334,0.5h0.666666l0.333334,-0.5" stroke="Plum" stroke-width="0.0078125" fill="none"/><path d="M9.83333,-2v0l0.333334,0.5h0.666666l0.333334,-0.5" stroke="Plum" stroke-width="0.0078125" fill="none"/><path d="M9.83333,-1v0l0.333334,0.5h0.666666l0.333334,-0.5" stroke="Plum" stroke-width="0.0078125" fill="none"/><path d="M9.83333,0v0l0.333334,0.5h0.666666l0.333334,-0.5" stroke="Plum" stroke-width="0.0078125" fill="none"/><path d="M9.83333,1v0l0.333334,0.5h0.666666l0.333334,-0.5" stroke="Plum" stroke-width="0.0078125" fill="none"/><path d="M9.83333,2v0l0.333334,0.5h0.666666l0.333334,-0.5" stroke="Plum" stroke-width="0.0078125" fill="none"/><path d="M10.8333,-7.5v0l0.333334,0.5h0.666666l0.333334,-0.5" stroke="Plum" stroke-width="0.0078125" fill="none"/><path d="M10.8333,-6.5v0l0.333334,0.5h0.666666l0.333334,-0.5" stroke="Plum" stroke-width="0.0078125" fill="none"/><path d="M10.8333,-5.5v0l0.333334,0.5h0.666666l0.333334,-0.5" stroke="Plum" stroke-width="0.0078125" fill="none"/><path d="M10.8333,-4.5v0l0.333334,0.5h0.666666l0.333334,-0.5" stroke="Plum" stroke-width="0.0078125" fill="none"/><path d="M10.8333,-3.5v0l0.333334,0.5h0.666666l0.333334,-0.5" stroke="Plum" stroke-width="0.0078125" fill="none"/><path d="M10.8333,-2.5v0l0.333334,0.5h0.666666l0.333334,-0.5" stroke="Plum" stroke-width="0.0078125" fill="none"/><path d="M10.8333,-1.5v0l0.333334,0.5h0.666666l0.333334,-0.5" stroke="Plum" stroke-width="0.0078125" fill="none"/><path d="M10.8333,-0.5v0l0.333334,0.5h0.666666l0.333334,-0.5" stroke="Plum" stroke-width="0.0078125" fill="none"/><path d="M10.8333,0.5v0l0.333334,0.5h0.666666l0.333334,-0.5" stroke="Plum" stroke-width="0.0078125" fill="none"/><path d="M10.8333,1.5v0l0.333334,0.5h0.666666l0.333334,-0.5" stroke="Plum" stroke-width="0.0078125" fill="none"/><path d="M11.8333,-7v0l0.333334,0.5h0.666666l0.333334,-0.5" stroke="Plum" stroke-width="0.0078125" fill="none"/><path d="M11.8333,-6v0l0.333334,0.5h0.666666l0.333334,-0.5" stroke="Plum" stroke-width="0.0078125" fill="none"/><path d="M11.8333,-5v0l0.333334,0.5h0.666666l0.333334,-0.5" stroke="Plum" stroke-width="0.0078125" fill="none"/><path d="M11.8333,-4v0l0.333334,0.5h0.666666l0.333334,-0.5" stroke="Plum" stroke-width="0.0078125" fill="none"/><path d="M11.8333,-3v0l0.333334,0.5h0.666666l0.333334,-0.5" stroke="Plum" stroke-width="0.0078125" fill="none"/><path d="M11.8333,-2v0l0.333334,0.5h0.666666l0.333334,-0.5" stroke="Plum" stroke-width="0.0078125" fill="none"/><path d="M11.8333,-1v0l0.333334,0.5h0.666666l0.333334,-0.5" stroke="Plum" stroke-width="0.0078125" fill="none"/><path d="M11.8333,0v0l0.333334,0.5h0.666666l0.333334,-0.5" stroke="Plum" stroke-width="0.0078125" fill="none"/><path d="M11.8333,1v0l0.333334,0.5h0.666666l0.333334,-0.5" stroke="Plum" stroke-width="0.0078125" fill="none"/><path d="M11.8333,2v0l0.333334,0.5h0.666666l0.333334,-0.5" stroke="Plum" stroke-width="0.0078125" fill="none"/><path d="M12.8333,-7.5v0l0.333334,0.5h0.666666l0.333334,-0.5" stroke="Plum" stroke-width="0.0078125" fill="none"/><path d="M12.8333,-6.5v0l0.333334,0.5h0.666666l0.333334,-0.5" stroke="Plum" stroke-width="0.0078125" fill="none"/><path d="M12.8333,-5.5v0l0.333334,0.5h0.666666l0.333334,-0.5" stroke="Plum" stroke-width="0.0078125" fill="none"/><path d="M12.8333,-4.5v0l0.333334,0.5h0.666666l0.333334,-0.5" stroke="Plum" stroke-width="0.0078125" fill="none"/><path d="M12.8333,-3.5v0l0.333334,0.5h0.666666l0.333334,-0.5" stroke="Plum" stroke-width="0.0078125" fill="none"/><path d="M12.8333,-2.5v0l0.333334,0.5h0.666666l0.333334,-0.5" stroke="Plum" stroke-width="0.0078125" fill="none"/><path d="M12.8333,-1.5v0l0.333334,0.5h0.666666l0.333334,-0.5" stroke="Plum" stroke-width="0.0078125" fill="none"/><path d="M12.8333,-0.5v0l0.333334,0.5h0.666666l0.333334,-0.5" stroke="Plum" stroke-width="0.0078125" fill="none"/><path d="M12.8333,0.5v0l0.333334,0.5h0.666666l0.333334,-0.5" stroke="Plum" stroke-width="0.0078125" fill="none"/><path d="M12.8333,1.5v0l0.333334,0.5h0.666666l0.333334,-0.5" stroke="Plum" stroke-width="0.0078125" fill="none"/><path d="M13.8333,-7v0l0.333334,0.5h0.666666l0.333334,-0.5" stroke="Plum" stroke-width="0.0078125" fill="none"/><path d="M13.8333,-6v0l0.333334,0.5h0.666666l0.333334,-0.5" stroke="Plum" stroke-width="0.0078125" fill="none"/><path d="M13.8333,-5v0l0.333334,0.5h0.666666l0.333334,-0.5" stroke="Plum" stroke-width="0.0078125" fill="none"/><path d="M13.8333,-4v0l0.333334,0.5h0.666666l0.333334,-0.5" stroke="Plum" stroke-width="0.0078125" fill="none"/><path d="M13.8333,-3v0l0.333334,0.5h0.666666l0.333334,-0.5" stroke="Plum" stroke-width="0.0078125" fill="none"/><path d="M13.8333,-2v0l0.333334,0.5h0.666666l0.333334,-0.5" stroke="Plum" stroke-width="0.0078125" fill="none"/><path d="M13.8333,-1v0l0.333334,0.5h0.666666l0.333334,-0.5" stroke="Plum" stroke-width="0.0078125" fill="none"/><path d="M13.8333,0v0l0.333334,0.5h0.666666l0.333334,-0.5" stroke="Plum" stroke-width="0.0078125" fill="none"/><path d="M13.8333,1v0l0.333334,0.5h0.666666l0.333334,-0.5" stroke="Plum" stroke-width="0.0078125" fill="none"/><path d="M13.8333,2v0l0.333334,0.5h0.666666l0.333334,-0.5" stroke="Plum" stroke-width="0.0078125" fill="none"/><text transform="translate(5.5,-8) scale(1.1547 1)" font-family="Arial" font-size="0.105" text-anchor="middle" x="0" y="0.08925" fill="LightBlue">0733</text><text transform="translate(5.5,-7) scale(1.1547 1)" font-family="Arial" font-size="0.105" text-anchor="middle" x="0" y="0.08925" fill="LightBlue">0734</text><text transform="translate(5.5,-6) scale(1.1547 1)" font-family="Arial" font-size="0.105" text-anchor="middle" x="0" y="0.08925" fill="LightBlue">0735</text><text transform="translate(5.5,-5) scale(1.1547 1)" font-family="Arial" font-size="0.105" text-anchor="middle" x="0" y="0.08925" fill="LightBlue">0736</text><text transform="translate(5.5,-4) scale(1.1547 1)" font-family="Arial" font-size="0.105" text-anchor="middle" x="0" y="0.08925" fill="LightBlue">0737</text><text transform="translate(5.5,-3) scale(1.1547 1)" font-family="Arial" font-size="0.105" text-anchor="middle" x="0" y="0.08925" fill="LightBlue">0738</text><text transform="translate(5.5,-2) scale(1.1547 1)" font-family="Arial" font-size="0.105" text-anchor="middle" x="0" y="0.08925" fill="LightBlue">0739</text><text transform="translate(5.5,-1) scale(1.1547 1)" font-family="Arial" font-size="0.105" text-anchor="middle" x="0" y="0.08925" fill="LightBlue">0740</text><text transform="translate(5.5,0) scale(1.1547 1)" font-family="Arial" font-size="0.105" text-anchor="middle" x="0" y="0.08925" fill="LightBlue">0701</text><text transform="translate(5.5,1) scale(1.1547 1)" font-family="Arial" font-size="0.105" text-anchor="middle" x="0" y="0.08925" fill="LightBlue">0702</text><text transform="translate(6.5,-7.5) scale(1.1547 1)" font-family="Arial" font-size="0.105" text-anchor="middle" x="0" y="0.08925" fill="LightBlue">0833</text><text transform="translate(6.5,-6.5) scale(1.1547 1)" font-family="Arial" font-size="0.105" text-anchor="middle" x="0" y="0.08925" fill="LightBlue">0834</text><text transform="translate(6.5,-5.5) scale(1.1547 1)" font-family="Arial" font-size="0.105" text-anchor="middle" x="0" y="0.08925" fill="LightBlue">0835</text><text transform="translate(6.5,-4.5) scale(1.1547 1)" font-family="Arial" font-size="0.105" text-anchor="middle" x="0" y="0.08925" fill="LightBlue">0836</text><text transform="translate(6.5,-3.5) scale(1.1547 1)" font-family="Arial" font-size="0.105" text-anchor="middle" x="0" y="0.08925" fill="LightBlue">0837</text><text transform="translate(6.5,-2.5) scale(1.1547 1)" font-family="Arial" font-size="0.105" text-anchor="middle" x="0" y="0.08925" fill="LightBlue">0838</text><text transform="translate(6.5,-1.5) scale(1.1547 1)" font-family="Arial" font-size="0.105" text-anchor="middle" x="0" y="0.08925" fill="LightBlue">0839</text><text transform="translate(6.5,-0.5) scale(1.1547 1)" font-family="Arial" font-size="0.105" text-anchor="middle" x="0" y="0.08925" fill="LightBlue">0840</text><text transform="translate(6.5,0.5) scale(1.1547 1)" font-family="Arial" font-size="0.105" text-anchor="middle" x="0" y="0.08925" fill="LightBlue">0801</text><text transform="translate(6.5,1.5) scale(1.1547 1)" font-family="Arial" font-size="0.105" text-anchor="middle" x="0" y="0.08925" fill="LightBlue">0802</text><text transform="translate(7.5,-8) scale(1.1547 1)" font-family="Arial" font-size="0.105" text-anchor="middle" x="0" y="0.08925" fill="LightBlue">0933</text><text transform="translate(7.5,-7) scale(1.1547 1)" font-family="Arial" font-size="0.105" text-anchor="middle" x="0" y="0.08925" fill="LightBlue">0934</text><text transform="translate(7.5,-6) scale(1.1547 1)" font-family="Arial" font-size="0.105" text-anchor="middle" x="0" y="0.08925" fill="LightBlue">0935</text><text transform="translate(7.5,-5) scale(1.1547 1)" font-family="Arial" font-size="0.105" text-anchor="middle" x="0" y="0.08925" fill="LightBlue">0936</text><text transform="translate(7.5,-4) scale(1.1547 1)" font-family="Arial" font-size="0.105" text-anchor="middle" x="0" y="0.08925" fill="LightBlue">0937</text><text transform="translate(7.5,-3) scale(1.1547 1)" font-family="Arial" font-size="0.105" text-anchor="middle" x="0" y="0.08925" fill="LightBlue">0938</text><text transform="translate(7.5,-2) scale(1.1547 1)" font-family="Arial" font-size="0.105" text-anchor="middle" x="0" y="0.08925" fill="LightBlue">0939</text><text transform="translate(7.5,-1) scale(1.1547 1)" font-family="Arial" font-size="0.105" text-anchor="middle" x="0" y="0.08925" fill="LightBlue">0940</text><text transform="translate(7.5,0) scale(1.1547 1)" font-family="Arial" font-size="0.105" text-anchor="middle" x="0" y="0.08925" fill="LightBlue">0901</text><text transform="translate(7.5,1) scale(1.1547 1)" font-family="Arial" font-size="0.105" text-anchor="middle" x="0" y="0.08925" fill="LightBlue">0902</text><text transform="translate(8.5,-7.5) scale(1.1547 1)" font-family="Arial" font-size="0.105" text-anchor="middle" x="0" y="0.08925" fill="LightBlue">1033</text><text transform="translate(8.5,-6.5) scale(1.1547 1)" font-family="Arial" font-size="0.105" text-anchor="middle" x="0" y="0.08925" fill="LightBlue">1034</text><text transform="translate(8.5,-5.5) scale(1.1547 1)" font-family="Arial" font-size="0.105" text-anchor="middle" x="0" y="0.08925" fill="LightBlue">1035</text><text transform="translate(8.5,-4.5) scale(1.1547 1)" font-family="Arial" font-size="0.105" text-anchor="middle" x="0" y="0.08925" fill="LightBlue">1036</text><text transform="translate(8.5,-3.5) scale(1.1547 1)" font-family="Arial" font-size="0.105" text-anchor="middle" x="0" y="0.08925" fill="LightBlue">1037</text><text transform="translate(8.5,-2.5) scale(1.1547 1)" font-family="Arial" font-size="0.105" text-anchor="middle" x="0" y="0.08925" fill="LightBlue">1038</text><text transform="translate(8.5,-1.5) scale(1.1547 1)" font-family="Arial" font-size="0.105" text-anchor="middle" x="0" y="0.08925" fill="LightBlue">1039</text><text transform="translate(8.5,-0.5) scale(1.1547 1)" font-family="Arial" font-size="0.105" text-anchor="middle" x="0" y="0.08925" fill="LightBlue">1040</text><text transform="translate(8.5,0.5) scale(1.1547 1)" font-family="Arial" font-size="0.105" text-anchor="middle" x="0" y="0.08925" fill="LightBlue">1001</text><text transform="translate(8.5,1.5) scale(1.1547 1)" font-family="Arial" font-size="0.105" text-anchor="middle" x="0" y="0.08925" fill="LightBlue">1002</text><text transform="translate(9.5,-8) scale(1.1547 1)" font-family="Arial" font-size="0.105" text-anchor="middle" x="0" y="0.08925" fill="LightBlue">1133</text><text transform="translate(9.5,-7) scale(1.1547 1)" font-family="Arial" font-size="0.105" text-anchor="middle" x="0" y="0.08925" fill="LightBlue">1134</text><text transform="translate(9.5,-6) scale(1.1547 1)" font-family="Arial" font-size="0.105" text-anchor="middle" x="0" y="0.08925" fill="LightBlue">1135</text><text transform="translate(9.5,-5) scale(1.1547 1)" font-family="Arial" font-size="0.105" text-anchor="middle" x="0" y="0.08925" fill="LightBlue">1136</text><text transform="translate(9.5,-4) scale(1.1547 1)" font-family="Arial" font-size="0.105" text-anchor="middle" x="0" y="0.08925" fill="LightBlue">1137</text><text transform="translate(9.5,-3) scale(1.1547 1)" font-family="Arial" font-size="0.105" text-anchor="middle" x="0" y="0.08925" fill="LightBlue">1138</text><text transform="translate(9.5,-2) scale(1.1547 1)" font-family="Arial" font-size="0.105" text-anchor="middle" x="0" y="0.08925" fill="LightBlue">1139</text><text transform="translate(9.5,-1) scale(1.1547 1)" font-family="Arial" font-size="0.105" text-anchor="middle" x="0" y="0.08925" fill="LightBlue">1140</text><text transform="translate(9.5,0) scale(1.1547 1)" font-family="Arial" font-size="0.105" text-anchor="middle" x="0" y="0.08925" fill="LightBlue">1101</text><text transform="translate(9.5,1) scale(1.1547 1)" font-family="Arial" font-size="0.105" text-anchor="middle" x="0" y="0.08925" fill="LightBlue">1102</text><text transform="translate(10.5,-7.5) scale(1.1547 1)" font-family="Arial" font-size="0.105" text-anchor="middle" x="0" y="0.08925" fill="LightBlue">1233</text><text transform="translate(10.5,-6.5) scale(1.1547 1)" font-family="Arial" font-size="0.105" text-anchor="middle" x="0" y="0.08925" fill="LightBlue">1234</text><text transform="translate(10.5,-5.5) scale(1.1547 1)" font-family="Arial" font-size="0.105" text-anchor="middle" x="0" y="0.08925" fill="LightBlue">1235</text><text transform="translate(10.5,-4.5) scale(1.1547 1)" font-family="Arial" font-size="0.105" text-anchor="middle" x="0" y="0.08925" fill="LightBlue">1236</text><text transform="translate(10.5,-3.5) scale(1.1547 1)" font-family="Arial" font-size="0.105" text-anchor="middle" x="0" y="0.08925" fill="LightBlue">1237</text><text transform="translate(10.5,-2.5) scale(1.1547 1)" font-family="Arial" font-size="0.105" text-anchor="middle" x="0" y="0.08925" fill="LightBlue">1238</text><text transform="translate(10.5,-1.5) scale(1.1547 1)" font-family="Arial" font-size="0.105" text-anchor="middle" x="0" y="0.08925" fill="LightBlue">1239</text><text transform="translate(10.5,-0.5) scale(1.1547 1)" font-family="Arial" font-size="0.105" text-anchor="middle" x="0" y="0.08925" fill="LightBlue">1240</text><text transform="translate(10.5,0.5) scale(1.1547 1)" font-family="Arial" font-size="0.105" text-anchor="middle" x="0" y="0.08925" fill="LightBlue">1201</text><text transform="translate(10.5,1.5) scale(1.1547 1)" font-family="Arial" font-size="0.105" text-anchor="middle" x="0" y="0.08925" fill="LightBlue">1202</text><text transform="translate(11.5,-8) scale(1.1547 1)" font-family="Arial" font-size="0.105" text-anchor="middle" x="0" y="0.08925" fill="LightBlue">1333</text><text transform="translate(11.5,-7) scale(1.1547 1)" font-family="Arial" font-size="0.105" text-anchor="middle" x="0" y="0.08925" fill="LightBlue">1334</text><text transform="translate(11.5,-6) scale(1.1547 1)" font-family="Arial" font-size="0.105" text-anchor="middle" x="0" y="0.08925" fill="LightBlue">1335</text><text transform="translate(11.5,-5) scale(1.1547 1)" font-family="Arial" font-size="0.105" text-anchor="middle" x="0" y="0.08925" fill="LightBlue">1336</text><text transform="translate(11.5,-4) scale(1.1547 1)" font-family="Arial" font-size="0.105" text-anchor="middle" x="0" y="0.08925" fill="LightBlue">1337</text><text transform="translate(11.5,-3) scale(1.1547 1)" font-family="Arial" font-size="0.105" text-anchor="middle" x="0" y="0.08925" fill="LightBlue">1338</text><text transform="translate(11.5,-2) scale(1.1547 1)" font-family="Arial" font-size="0.105" text-anchor="middle" x="0" y="0.08925" fill="LightBlue">1339</text><text transform="translate(11.5,-1) scale(1.1547 1)" font-family="Arial" font-size="0.105" text-anchor="middle" x="0" y="0.08925" fill="LightBlue">1340</text><text transform="translate(11.5,0) scale(1.1547 1)" font-family="Arial" font-size="0.105" text-anchor="middle" x="0" y="0.08925" fill="LightBlue">1301</text><text transform="translate(11.5,1) scale(1.1547 1)" font-family="Arial" font-size="0.105" text-anchor="middle" x="0" y="0.08925" fill="LightBlue">1302</text><text transform="translate(12.5,-7.5) scale(1.1547 1)" font-family="Arial" font-size="0.105" text-anchor="middle" x="0" y="0.08925" fill="LightBlue">1433</text><text transform="translate(12.5,-6.5) scale(1.1547 1)" font-family="Arial" font-size="0.105" text-anchor="middle" x="0" y="0.08925" fill="LightBlue">1434</text><text transform="translate(12.5,-5.5) scale(1.1547 1)" font-family="Arial" font-size="0.105" text-anchor="middle" x="0" y="0.08925" fill="LightBlue">1435</text><text transform="translate(12.5,-4.5) scale(1.1547 1)" font-family="Arial" font-size="0.105" text-anchor="middle" x="0" y="0.08925" fill="LightBlue">1436</text><text transform="translate(12.5,-3.5) scale(1.1547 1)" font-family="Arial" font-size="0.105" text-anchor="middle" x="0" y="0.08925" fill="LightBlue">1437</text><text transform="translate(12.5,-2.5) scale(1.1547 1)" font-family="Arial" font-size="0.105" text-anchor="middle" x="0" y="0.08925" fill="LightBlue">1438</text><text transform="translate(12.5,-1.5) scale(1.1547 1)" font-family="Arial" font-size="0.105" text-anchor="middle" x="0" y="0.08925" fill="LightBlue">1439</text><text transform="translate(12.5,-0.5) scale(1.1547 1)" font-family="Arial" font-size="0.105" text-anchor="middle" x="0" y="0.08925" fill="LightBlue">1440</text><text transform="translate(12.5,0.5) scale(1.1547 1)" font-family="Arial" font-size="0.105" text-anchor="middle" x="0" y="0.08925" fill="LightBlue">1401</text><text transform="translate(12.5,1.5) scale(1.1547 1)" font-family="Arial" font-size="0.105" text-anchor="middle" x="0" y="0.08925" fill="LightBlue">1402</text><text transform="translate(13.5,-8) scale(1.1547 1)" font-family="Arial" font-size="0.105" text-anchor="middle" x="0" y="0.08925" fill="LightBlue">1533</text><text transform="translate(13.5,-7) scale(1.1547 1)" font-family="Arial" font-size="0.105" text-anchor="middle" x="0" y="0.08925" fill="LightBlue">1534</text><text transform="translate(13.5,-6) scale(1.1547 1)" font-family="Arial" font-size="0.105" text-anchor="middle" x="0" y="0.08925" fill="LightBlue">1535</text><text transform="translate(13.5,-5) scale(1.1547 1)" font-family="Arial" font-size="0.105" text-anchor="middle" x="0" y="0.08925" fill="LightBlue">1536</text><text transform="translate(13.5,-4) scale(1.1547 1)" font-family="Arial" font-size="0.105" text-anchor="middle" x="0" y="0.08925" fill="LightBlue">1537</text><text transform="translate(13.5,-3) scale(1.1547 1)" font-family="Arial" font-size="0.105" text-anchor="middle" x="0" y="0.08925" fill="LightBlue">1538</text><text transform="translate(13.5,-2) scale(1.1547 1)" font-family="Arial" font-size="0.105" text-anchor="middle" x="0" y="0.08925" fill="LightBlue">1539</text><text transform="translate(13.5,-1) scale(1.1547 1)" font-family="Arial" font-size="0.105" text-anchor="middle" x="0" y="0.08925" fill="LightBlue">1540</text><text transform="translate(13.5,0) scale(1.1547 1)" font-family="Arial" font-size="0.105" text-anchor="middle" x="0" y="0.08925" fill="LightBlue">1501</text><text transform="translate(13.5,1) scale(1.1547 1)" font-family="Arial" font-size="0.105" text-anchor="middle" x="0" y="0.08925" fill="LightBlue">1502</text><text transform="translate(14.5,-7.5) scale(1.1547 1)" font-family="Arial" font-size="0.105" text-anchor="middle" x="0" y="0.08925" fill="LightBlue">1633</text><text transform="translate(14.5,-6.5) scale(1.1547 1)" font-family="Arial" font-size="0.105" text-anchor="middle" x="0" y="0.08925" fill="LightBlue">1634</text><text transform="translate(14.5,-5.5) scale(1.1547 1)" font-family="Arial" font-size="0.105" text-anchor="middle" x="0" y="0.08925" fill="LightBlue">1635</text><text transform="translate(14.5,-4.5) scale(1.1547 1)" font-family="Arial" font-size="0.105" text-anchor="middle" x="0" y="0.08925" fill="LightBlue">1636</text><text transform="translate(14.5,-3.5) scale(1.1547 1)" font-family="Arial" font-size="0.105" text-anchor="middle" x="0" y="0.08925" fill="LightBlue">1637</text><text transform="translate(14.5,-2.5) scale(1.1547 1)" font-family="Arial" font-size="0.105" text-anchor="middle" x="0" y="0.08925" fill="LightBlue">1638</text><text transform="translate(14.5,-1.5) scale(1.1547 1)" font-family="Arial" font-size="0.105" text-anchor="middle" x="0" y="0.08925" fill="LightBlue">1639</text><text transform="translate(14.5,-0.5) scale(1.1547 1)" font-family="Arial" font-size="0.105" text-anchor="middle" x="0" y="0.08925" fill="LightBlue">1640</text><text transform="translate(14.5,0.5) scale(1.1547 1)" font-family="Arial" font-size="0.105" text-anchor="middle" x="0" y="0.08925" fill="LightBlue">1601</text><text transform="translate(14.5,1.5) scale(1.1547 1)" font-family="Arial" font-size="0.105" text-anchor="middle" x="0" y="0.08925" fill="LightBlue">1602</text><g clip-path="url(#did4)"><path clip-path="url(#did5)" d="M0.166667,-16.5l-0.333333,-0.5l0.333333,-0.5h0.666667l0.333333,-0.5h0.666667l0.333334,-0.5l-0.333334,-0.5l0.333334,-0.5h0.666667l0.333334,0.5h0.666667l0.333333,-0.5h0.666667l0.333333,-0.5h0.666667l0.333333,0.5h0.666667l0.333333,0.5l-0.333333,0.5l0.333333,0.5l-0.333333,0.5h-0.666667l-0.333333,0.5l0.333333,0.5l-0.333333,0.5l0.333333,0.5l-0.333333,0.5l0.333333,0.5l-0.333333,0.5l0.333333,0.5l-0.333333,0.5l0.333333,0.5l-0.333333,0.5h-0.666667l-0.333333,-0.5h-0.666667l-0.333333,-0.5h-0.666667l-0.333334,0.5h-0.666667l-0.333334,-0.5l0.333334,-0.5l-0.333334,-0.5h-0.666667l-0.333333,-0.5l0.333333,-0.5l-0.333333,-0.5h-0.666667l-0.333333,-0.5Z" stroke="LightBlue" stroke-width="0.03125" stroke-dasharray="0.031 0.031" fill="none"/><path clip-path="url(#did6)" d="M4.16667,-19.5l-0.333333,-0.5l0.333333,-0.5h0.666667l0.333333,-0.5h0.666667l0.333333,0.5h0.666667l0.333333,0.5h0.666667l0.333334,0.5h0.666666l0.333334,-0.5h0.666666l0.333334,0.5h0.666666l0.333334,0.5h0.666666l0.333334,-0.5h0.666666l0.333334,0.5h0.666666l0.333334,0.5l-0.333334,0.5l0.333334,0.5l-0.333334,0.5l0.333334,0.5l-0.333334,0.5l0.333334,0.5l-0.333334,0.5l0.333334,0.5h0.666666l0.333334,0.5l-0.333334,0.5l0.333334,0.5l-0.333334,0.5l0.333334,0.5l-0.333334,0.5h-0.666666l-0.333334,0.5h-0.666666l-0.333334,-0.5l0.333334,-0.5l-0.333334,-0.5h-0.666666l-0.333334,-0.5h-0.666666l-0.333334,0.5h-0.666666l-0.333334,0.5l0.333334,0.5l-0.333334,0.5l0.333334,0.5l-0.333334,0.5h-0.666666l-0.333334,-0.5l0.333334,-0.5l-0.333334,-0.5h-0.666666l-0.333334,-0.5h-0.666667l-0.333333,-0.5l0.333333,-0.5l-0.333333,-0.5l0.333333,-0.5l-0.333333,-0.5l0.333333,-0.5l-0.333333,-0.5l0.333333,-0.5l-0.333333,-0.5l0.333333,-0.5l-0.333333,-0.5l0.333333,-0.5l-0.333333,-0.5l0.333333,-0.5l-0.333333,-0.5h-0.666667l-0.333333,-0.5h-0.666667l-0.333333,0.5Z" stroke="Blue" stroke-width="0.03125" stroke-dasharray="0.031 0.031" fill="none"/><path clip-path="url(#did7)" d="M-1.83333,-39.5l-0.333334,-0.5l0.333334,-0.5h0.666667l0.333333,-0.5h0.666667l0.333333,0.5h0.666667l0.333333,0.5l-0.333333,0.5h-0.666667l-0.333333,0.5l0.333333,0.5h0.666667l0.333333,0.5h0.666667l0.333334,0.5h0.666667l0.333334,0.5h0.666667l0.333333,0.5h0.666667l0.333333,0.5h0.666667l0.333333,-0.5h0.666667l0.333333,-0.5h0.666667l0.333334,-0.5h0.666666l0.333334,-0.5l-0.333334,-0.5l0.333334,-0.5h0.666666l0.333334,-0.5h0.666666l0.333334,0.5h0.666666l0.333334,-0.5h0.666666l0.333334,0.5l-0.333334,0.5l0.333334,0.5l-0.333334,0.5h-0.666666l-0.333334,0.5h-0.666666l-0.333334,-0.5h-0.666666l-0.333334,0.5h-0.666666l-0.333334,0.5h-0.666666l-0.333334,0.5h-0.666667l-0.333333,0.5h-0.666667l-0.333333,0.5h-0.666667l-0.333333,-0.5h-0.666667l-0.333333,0.5l0.333333,0.5l-0.333333,0.5l0.333333,0.5l-0.333333,0.5l0.333333,0.5h0.666667l0.333333,0.5l-0.333333,0.5l0.333333,0.5l-0.333333,0.5l0.333333,0.5l-0.333333,0.5l0.333333,0.5h0.666667l0.333333,0.5l-0.333333,0.5h-0.666667l-0.333333,0.5l0.333333,0.5l-0.333333,0.5l0.333333,0.5l-0.333333,0.5h-0.666667l-0.333333,-0.5h-0.666667l-0.333334,-0.5h-0.666667l-0.333334,-0.5l0.333334,-0.5l-0.333334,-0.5l0.333334,-0.5h0.666667l0.333334,-0.5l-0.333334,-0.5l0.333334,-0.5h0.666667l0.333333,-0.5l-0.333333,-0.5l0.333333,-0.5l-0.333333,-0.5h-0.666667l-0.333334,-0.5h-0.666667l-0.333334,-0.5h-0.666667l-0.333333,-0.5h-0.666667l-0.333333,-0.5h-0.666667l-0.333333,0.5h-0.666667l-0.333334,-0.5l0.333334,-0.5l-0.333334,-0.5l0.333334,-0.5l-0.333334,-0.5l0.333334,-0.5l-0.333334,-0.5l0.333334,-0.5l-0.333334,-0.5l0.333334,-0.5l-0.333334,-0.5Z" stroke="Blue" stroke-width="0.03125" stroke-dasharray="0.031 0.031" fill="none"/><path clip-path="url(#did8)" d="M8.16667,-34.5l-0.333334,-0.5l0.333334,-0.5h0.666666l0.333334,-0.5h0.666666l0.333334,-0.5h0.666666l0.333334,0.5h0.666666l0.333334,0.5h0.666666l0.333334,-0.5h0.666666l0.333334,-0.5h0.666666l0.333334,-0.5h0.666666l0.333333,-0.5l-0.333333,-0.5l0.333333,-0.5h0.666668l0.333332,0.5h0.666668l0.333332,-0.5h0.666668l0.333332,-0.5h0.666668l0.333332,-0.5h0.666668l0.333332,0.5h0.666668l0.333332,0.5h0.666668l0.333332,-0.5h0.666668l0.333332,-0.5h0.666668l0.333332,-0.5h0.666668l0.333332,0.5h0.666668l0.333332,0.5h0.666668l0.333332,-0.5h0.666668l0.333332,0.5h0.666668l0.333332,-0.5h0.666668l0.333332,0.5h0.666668l0.333334,0.5l-0.333334,0.5l0.333334,0.5l-0.333334,0.5l0.333334,0.5l-0.333334,0.5l0.333334,0.5l-0.333334,0.5l0.333334,0.5l-0.333334,0.5l0.333334,0.5l-0.333334,0.5l0.333334,0.5l-0.333334,0.5l0.333334,0.5l-0.333334,0.5l0.333334,0.5l-0.333334,0.5l0.333334,0.5l-0.333334,0.5l0.333334,0.5l-0.333334,0.5l0.333334,0.5l-0.333334,0.5l0.333334,0.5l-0.333334,0.5l0.333334,0.5l-0.333334,0.5l0.333334,0.5l-0.333334,0.5l0.333334,0.5l-0.333334,0.5l0.333334,0.5l-0.333334,0.5l0.333334,0.5l-0.333334,0.5l0.333334,0.5l-0.333334,0.5l0.333334,0.5l-0.333334,0.5l0.333334,0.5l-0.333334,0.5l0.333334,0.5l-0.333334,0.5l0.333334,0.5l-0.333334,0.5l0.333334,0.5l-0.333334,0.5l0.333334,0.5l-0.333334,0.5l0.333334,0.5l-0.333334,0.5l0.333334,0.5l-0.333334,0.5l0.333334,0.5l-0.333334,0.5l0.333334,0.5l-0.333334,0.5l0.333334,0.5l-0.333334,0.5l0.333334,0.5l-0.333334,0.5l0.333334,0.5l-0.333334,0.5l0.333334,0.5l-0.333334,0.5l0.333334,0.5l-0.333334,0.5l0.333334,0.5l-0.333334,0.5l0.333334,0.5l-0.333334,0.5l0.333334,0.5l-0.333334,0.5l0.333334,0.5l-0.333334,0.5l0.333334,0.5l-0.333334,0.5l0.333334,0.5l-0.333334,0.5h-0.666668l-0.333332,0.5h-0.666668l-0.333332,-0.5h-0.666668l-0.333332,0.5h-0.666668l-0.333332,-0.5h-0.666668l-0.333332,0.5h-0.666668l-0.333332,-0.5h-0.666668l-0.333332,0.5h-0.666668l-0.333332,-0.5h-0.666668l-0.333332,0.5h-0.666668l-0.333332,-0.5h-0.666668l-0.333332,0.5h-0.666668l-0.333332,-0.5h-0.666668l-0.333332,0.5h-0.666668l-0.333332,-0.5h-0.666668l-0.333332,-0.5h-0.666668l-0.333333,-0.5l0.333333,-0.5l-0.333333,-0.5h-0.666666l-0.333334,-0.5l0.333334,-0.5l-0.333334,-0.5h-0.666666l-0.333334,-0.5h-0.666666l-0.333334,-0.5l0.333334,-0.5h0.666666l0.333334,-0.5h0.666666l0.333334,-0.5h0.666666l0.333333,-0.5l-0.333333,-0.5l0.333333,-0.5l-0.333333,-0.5h-0.666666l-0.333334,-0.5l0.333334,-0.5h0.666666l0.333333,-0.5l-0.333333,-0.5h-0.666666l-0.333334,-0.5l0.333334,-0.5l-0.333334,-0.5l0.333334,-0.5l-0.333334,-0.5l0.333334,-0.5l-0.333334,-0.5l0.333334,-0.5l-0.333334,-0.5l0.333334,-0.5h0.666666l0.333333,-0.5l-0.333333,-0.5l0.333333,-0.5l-0.333333,-0.5l0.333333,-0.5l-0.333333,-0.5l0.333333,-0.5l-0.333333,-0.5l0.333333,-0.5l-0.333333,-0.5h-0.666666l-0.333334,-0.5h-0.666666l-0.333334,-0.5h-0.666666l-0.333334,-0.5h-0.666666l-0.333334,0.5h-0.666666l-0.333334,-0.5h-0.666666l-0.333334,-0.5h-0.666666l-0.333334,0.5l0.333334,0.5l-0.333334,0.5h-0.666666l-0.333334,-0.5l0.333334,-0.5l-0.333334,-0.5l0.333334,-0.5l-0.333334,-0.5l0.333334,-0.5h0.666666l0.333334,-0.5l-0.333334,-0.5l0.333334,-0.5l-0.333334,-0.5l0.333334,-0.5h0.666666l0.333334,-0.5l-0.333334,-0.5l0.333334,-0.5h0.666666l0.333334,-0.5l-0.333334,-0.5l0.333334,-0.5h0.666666l0.333334,-0.5h0.666666l0.333334,-0.5h0.666666l0.333334,-0.5h0.666666l0.333334,-0.5h0.666666l0.333333,-0.5h0.666668l0.333332,-0.5l-0.333332,-0.5h-0.666668l-0.333333,-0.5h-0.666666l-0.333334,-0.5h-0.666666l-0.333334,-0.5h-0.666666l-0.333334,0.5h-0.666666l-0.333334,-0.5h-0.666666l-0.333334,0.5h-0.666666l-0.333334,-0.5h-0.666666l-0.333334,-0.5h-0.666666l-0.333334,-0.5Z" stroke="#E32736" stroke-width="0.03125" stroke-dasharray="0.031 0.031" fill="none"/><path clip-path="url(#did9)" d="M11.1667,-11l-0.333334,-0.5l0.333334,-0.5h0.666666l0.333334,0.5h0.666666l0.333334,0.5l-0.333334,0.5l0.333334,0.5l-0.333334,0.5h-0.666666l-0.333334,-0.5h-0.666666l-0.333334,-0.5Z" stroke="#E32736" stroke-width="0.03125" stroke-dasharray="0.031 0.031" fill="none"/><path clip-path="url(#did10)" d="M-0.833333,-7l-0.333333,-0.5l0.333333,-0.5h0.666667l0.333333,-0.5h0.666667l0.333333,-0.5h0.666667l0.333334,0.5h0.666667l0.333334,0.5h0.666667l0.333333,-0.5h0.666667l0.333333,-0.5h0.666667l0.333333,0.5l-0.333333,0.5l0.333333,0.5l-0.333333,0.5h-0.666667l-0.333333,0.5h-0.666667l-0.333333,0.5l0.333333,0.5h0.666667l0.333333,0.5l-0.333333,0.5l0.333333,0.5h0.666667l0.333333,0.5l-0.333333,0.5l0.333333,0.5l-0.333333,0.5h-0.666667l-0.333333,0.5h-0.666667l-0.333333,0.5h-0.666667l-0.333334,-0.5h-0.666667l-0.333334,0.5h-0.666667l-0.333333,-0.5h-0.666667l-0.333333,0.5h-0.666667l-0.333333,-0.5l0.333333,-0.5l-0.333333,-0.5l0.333333,-0.5l-0.333333,-0.5l0.333333,-0.5l-0.333333,-0.5l0.333333,-0.5l-0.333333,-0.5l0.333333,-0.5l-0.333333,-0.5Z" stroke="#E32736" stroke-width="0.03125" stroke-dasharray="0.031 0.031" fill="none"/><path clip-path="url(#did11)" d="M7.16667,-10l-0.333333,-0.5l0.333333,-0.5h0.666667l0.333334,0.5l-0.333334,0.5Z" stroke="#E32736" stroke-width="0.03125" stroke-dasharray="0.031 0.031" fill="none"/></g><line x1="8.75" y1="-34.125" x2="9.25" y2="-34.375" stroke="#048104" stroke-width="0.04"/><line x1="8.75" y1="-34.875" x2="9.25" y2="-34.625" stroke="#048104" stroke-width="0.04"/><line x1="9.64434" y1="-34.7165" x2="10.3557" y2="-35.7835" stroke="#048104" stroke-width="0.04"/><line x1="9.75" y1="-34.375" x2="11.25" y2="-33.625" stroke="#048104" stroke-width="0.04"/><line x1="11.75" y1="-33.625" x2="15.25" y2="-35.375" stroke="#048104" stroke-width="0.04"/><line x1="16.75" y1="-13.875" x2="20.25" y2="-12.125" stroke="#048104" stroke-width="0.04"/><line x1="15.75" y1="-35.625" x2="17.25" y2="-36.375" stroke="#048104" stroke-width="0.04"/><line x1="17.5" y1="-37.25" x2="17.5" y2="-36.75" stroke="#048104" stroke-width="0.04"/><line x1="17.7835" y1="-37.5473" x2="20.2165" y2="-37.9528" stroke="#048104" stroke-width="0.04"/><line x1="17.6443" y1="-36.2835" x2="18.3557" y2="-35.2165" stroke="#048104" stroke-width="0.04"/><line x1="18.5" y1="-34.75" x2="18.5" y2="-33.25" stroke="#048104" stroke-width="0.04"/><line x1="17.5945" y1="-30.7362" x2="18.4055" y2="-32.7638" stroke="#048104" stroke-width="0.04"/><line x1="16.75" y1="-30.125" x2="17.25" y2="-30.375" stroke="#048104" stroke-width="0.04"/><line x1="15.75" y1="-29.625" x2="16.25" y2="-29.875" stroke="#048104" stroke-width="0.04"/><line x1="12.708" y1="-27.1733" x2="15.292" y2="-29.3267" stroke="#048104" stroke-width="0.04"/><line x1="9.70801" y1="-24.6733" x2="12.292" y2="-26.8267" stroke="#048104" stroke-width="0.04"/><line x1="9.5" y1="-24.25" x2="9.5" y2="-22.75" stroke="#048104" stroke-width="0.04"/><line x1="17.5" y1="-30.25" x2="17.5" y2="-28.75" stroke="#048104" stroke-width="0.04"/><line x1="16.5693" y1="-25.2427" x2="17.4307" y2="-28.2573" stroke="#048104" stroke-width="0.04"/><line x1="15.5693" y1="-21.7427" x2="16.4307" y2="-24.7573" stroke="#048104" stroke-width="0.04"/><line x1="15.75" y1="-21.375" x2="17.25" y2="-20.625" stroke="#048104" stroke-width="0.04"/><line x1="17.7774" y1="-20.5693" x2="21.2227" y2="-21.4307" stroke="#048104" stroke-width="0.04"/><line x1="21.6443" y1="-21.7165" x2="22.3557" y2="-22.7835" stroke="#048104" stroke-width="0.04"/><line x1="22.75" y1="-23.125" x2="25.25" y2="-24.375" stroke="#048104" stroke-width="0.04"/><line x1="25.6443" y1="-24.7165" x2="26.3557" y2="-25.7835" stroke="#048104" stroke-width="0.04"/><line x1="25.5945" y1="-28.2638" x2="26.4055" y2="-26.2362" stroke="#048104" stroke-width="0.04"/><line x1="23.689" y1="-30.311" x2="25.311" y2="-28.689" stroke="#048104" stroke-width="0.04"/><line x1="22.75" y1="-30.125" x2="23.25" y2="-30.375" stroke="#048104" stroke-width="0.04"/><line x1="26.6443" y1="-26.2165" x2="27.3557" y2="-27.2835" stroke="#048104" stroke-width="0.04"/><line x1="27.5945" y1="-27.7362" x2="28.4055" y2="-29.7638" stroke="#048104" stroke-width="0.04"/><line x1="28.75" y1="-30.125" x2="29.25" y2="-30.375" stroke="#048104" stroke-width="0.04"/><line x1="29.75" y1="-30.625" x2="30.25" y2="-30.875" stroke="#048104" stroke-width="0.04"/><line x1="30.75" y1="-31.125" x2="32.25" y2="-31.875" stroke="#048104" stroke-width="0.04"/><line x1="27.7835" y1="-27.5473" x2="30.2165" y2="-27.9528" stroke="#048104" stroke-width="0.04"/><line x1="30.75" y1="-28.125" x2="33.25" y2="-29.375" stroke="#048104" stroke-width="0.04"/><line x1="21.75" y1="-21.625" x2="22.25" y2="-21.875" stroke="#048104" stroke-width="0.04"/><line x1="22.6443" y1="-21.7835" x2="24.3557" y2="-19.2165" stroke="#048104" stroke-width="0.04"/><line x1="21.75" y1="-17.625" x2="24.25" y2="-18.875" stroke="#048104" stroke-width="0.04"/><line x1="19.75" y1="-16.625" x2="21.25" y2="-17.375" stroke="#048104" stroke-width="0.04"/><line x1="16.7835" y1="-16.0473" x2="19.2165" y2="-16.4528" stroke="#048104" stroke-width="0.04"/><line x1="13.75" y1="-14.625" x2="16.25" y2="-15.875" stroke="#048104" stroke-width="0.04"/><line x1="13.5" y1="-15.25" x2="13.5" y2="-14.75" stroke="#006600" stroke-width="0.04"/><line x1="13.5" y1="-16.25" x2="13.5" y2="-15.75" stroke="#006600" stroke-width="0.04"/><line x1="13.5" y1="-17.25" x2="13.5" y2="-16.75" stroke="#006600" stroke-width="0.04"/><line x1="13.5" y1="-18.25" x2="13.5" y2="-17.75" stroke="#006600" stroke-width="0.04"/><line x1="12.75" y1="-16.125" x2="13.25" y2="-16.375" stroke="#006600" stroke-width="0.04"/><line x1="11.75" y1="-16.375" x2="12.25" y2="-16.125" stroke="#006600" stroke-width="0.04"/><line x1="10.75" y1="-16.875" x2="11.25" y2="-16.625" stroke="#006600" stroke-width="0.04"/><line x1="9.75" y1="-17.375" x2="10.25" y2="-17.125" stroke="#006600" stroke-width="0.04"/><line x1="8.75" y1="-17.875" x2="9.25" y2="-17.625" stroke="#006600" stroke-width="0.04"/><line x1="7.75" y1="-18.375" x2="8.25" y2="-18.125" stroke="#006600" stroke-width="0.04"/><line x1="7.5" y1="-19.25" x2="7.5" y2="-18.75" stroke="#006600" stroke-width="0.04"/><line x1="11.75" y1="-15.625" x2="12.25" y2="-15.875" stroke="#006600" stroke-width="0.04"/><line x1="10.75" y1="-15.125" x2="11.25" y2="-15.375" stroke="#006600" stroke-width="0.04"/><line x1="9.75" y1="-14.625" x2="10.25" y2="-14.875" stroke="#006600" stroke-width="0.04"/><line x1="8.75" y1="-14.125" x2="9.25" y2="-14.375" stroke="#006600" stroke-width="0.04"/><line x1="7.75" y1="-13.625" x2="8.25" y2="-13.875" stroke="#006600" stroke-width="0.04"/><line x1="11.6443" y1="-11.7165" x2="13.3557" y2="-14.2835" stroke="#048104" stroke-width="0.04"/><line x1="7.77735" y1="-10.5693" x2="11.2227" y2="-11.4307" stroke="#048104" stroke-width="0.04"/><line x1="5.68898" y1="-8.68898" x2="7.31102" y2="-10.311" stroke="#048104" stroke-width="0.04"/><line x1="3.68898" y1="-6.68898" x2="5.31102" y2="-8.31102" stroke="#048104" stroke-width="0.04"/><line x1="2.75" y1="-6.875" x2="3.25" y2="-6.625" stroke="#048104" stroke-width="0.04"/><line x1="1.75" y1="-7.375" x2="2.25" y2="-7.125" stroke="#048104" stroke-width="0.04"/><line x1="-0.211325" y1="-7.5" x2="1.21133" y2="-7.5" stroke="#048104" stroke-width="0.04"/><line x1="3.5" y1="-6.25" x2="3.5" y2="-2.75" stroke="#048104" stroke-width="0.04"/><line x1="-0.22265" y1="-1.56934" x2="3.22265" y2="-2.43066" stroke="#048104" stroke-width="0.04"/><line x1="19.5" y1="-16.25" x2="19.5" y2="-15.75" stroke="#048104" stroke-width="0.04"/><line x1="16.75" y1="-14.125" x2="19.25" y2="-15.375" stroke="#048104" stroke-width="0.04"/><line x1="19.689" y1="-15.311" x2="21.311" y2="-13.689" stroke="#048104" stroke-width="0.04"/><line x1="20.6443" y1="-12.2165" x2="21.3557" y2="-13.2835" stroke="#048104" stroke-width="0.04"/><line x1="20.5" y1="-11.75" x2="20.5" y2="-9.25" stroke="#048104" stroke-width="0.04"/><line x1="20.5945" y1="-8.76377" x2="21.4055" y2="-6.73623" stroke="#048104" stroke-width="0.04"/><line x1="21.5" y1="-6.25" x2="21.5" y2="-4.75" stroke="#048104" stroke-width="0.04"/><line x1="18.7835" y1="-4.04725" x2="21.2165" y2="-4.45275" stroke="#048104" stroke-width="0.04"/><line x1="17.75" y1="-3.625" x2="18.25" y2="-3.875" stroke="#048104" stroke-width="0.04"/><line x1="15.7887" y1="-3.5" x2="17.2113" y2="-3.5" stroke="#048104" stroke-width="0.04"/><line x1="13.7887" y1="-3.5" x2="15.2113" y2="-3.5" stroke="#048104" stroke-width="0.04"/><line x1="17.6443" y1="-2.71651" x2="18.3557" y2="-3.78349" stroke="#048104" stroke-width="0.04"/><line x1="18.6443" y1="-3.78349" x2="19.3557" y2="-2.71651" stroke="#048104" stroke-width="0.04"/><line x1="19.5" y1="-2.25" x2="19.5" y2="-0.75" stroke="#048104" stroke-width="0.04"/><line x1="19.5" y1="-0.25" x2="19.5" y2="1.25" stroke="#048104" stroke-width="0.04"/><line x1="21.7887" y1="-4.5" x2="23.2113" y2="-4.5" stroke="#048104" stroke-width="0.04"/><line x1="23.5" y1="-4.25" x2="23.5" y2="-3.75" stroke="#048104" stroke-width="0.04"/><line x1="23.75" y1="-3.375" x2="24.25" y2="-3.125" stroke="#048104" stroke-width="0.04"/><line x1="24.6443" y1="-2.78349" x2="25.3557" y2="-1.71651" stroke="#048104" stroke-width="0.04"/><line x1="25.75" y1="-1.375" x2="26.25" y2="-1.125" stroke="#048104" stroke-width="0.04"/><line x1="26.75" y1="-0.875" x2="27.25" y2="-0.625" stroke="#048104" stroke-width="0.04"/><line x1="26.7835" y1="-1.04725" x2="29.2165" y2="-1.45275" stroke="#048104" stroke-width="0.04"/><line x1="24.75" y1="-3.125" x2="27.25" y2="-4.375" stroke="#048104" stroke-width="0.04"/><line x1="27.7835" y1="-4.54725" x2="30.2165" y2="-4.95275" stroke="#048104" stroke-width="0.04"/><line x1="28.6443" y1="-7.78349" x2="30.3557" y2="-5.21651" stroke="#048104" stroke-width="0.04"/><line x1="25.7835" y1="-7.54725" x2="28.2165" y2="-7.95275" stroke="#048104" stroke-width="0.04"/><line x1="23.6443" y1="-4.71651" x2="25.3557" y2="-7.28349" stroke="#048104" stroke-width="0.04"/><line x1="21.7774" y1="-6.56934" x2="25.2227" y2="-7.43066" stroke="#048104" stroke-width="0.04"/><line x1="28.5" y1="-9.75" x2="28.5" y2="-8.25" stroke="#048104" stroke-width="0.04"/><line x1="28.5" y1="-10.75" x2="28.5" y2="-10.25" stroke="#048104" stroke-width="0.04"/><line x1="27.5945" y1="-13.2638" x2="28.4055" y2="-11.2362" stroke="#048104" stroke-width="0.04"/><line x1="26.6443" y1="-12.2165" x2="27.3557" y2="-13.2835" stroke="#048104" stroke-width="0.04"/><line x1="27.6443" y1="-13.7165" x2="28.3557" y2="-14.7835" stroke="#048104" stroke-width="0.04"/><line x1="25.7835" y1="-14.5473" x2="28.2165" y2="-14.9528" stroke="#048104" stroke-width="0.04"/><line x1="21.75" y1="-16.375" x2="25.25" y2="-14.625" stroke="#048104" stroke-width="0.04"/><line x1="21.5" y1="-17.25" x2="21.5" y2="-16.75" stroke="#048104" stroke-width="0.04"/><line x1="28.6443" y1="-15.2165" x2="29.3557" y2="-16.2835" stroke="#048104" stroke-width="0.04"/><line x1="29.7887" y1="-16.5" x2="31.2113" y2="-16.5" stroke="#048104" stroke-width="0.04"/><line x1="28.75" y1="-37.125" x2="29.25" y2="-37.375" stroke="#048104" stroke-width="0.04"/><line x1="29.75" y1="-37.625" x2="30.25" y2="-37.875" stroke="#048104" stroke-width="0.04"/><line x1="30.75" y1="-38.125" x2="32.25" y2="-38.875" stroke="#048104" stroke-width="0.04"/><line x1="-1.35566" y1="-38.7835" x2="-0.644338" y2="-37.7165" stroke="LightBlue" stroke-width="0.04"/><line x1="-0.25" y1="-37.375" x2="1.25" y2="-36.625" stroke="LightBlue" stroke-width="0.04"/><line x1="1.5" y1="-36.25" x2="1.5" y2="-33.75" stroke="LightBlue" stroke-width="0.04"/><line x1="1.75" y1="-33.375" x2="4.25" y2="-32.125" stroke="LightBlue" stroke-width="0.04"/><line x1="4.5" y1="-31.75" x2="4.5" y2="-30.25" stroke="LightBlue" stroke-width="0.04"/><line x1="4.64434" y1="-29.7835" x2="5.35566" y2="-28.7165" stroke="LightBlue" stroke-width="0.04"/><line x1="4.59449" y1="-26.2362" x2="5.40551" y2="-28.2638" stroke="LightBlue" stroke-width="0.04"/><line x1="2.68898" y1="-27.811" x2="4.31102" y2="-26.189" stroke="LightBlue" stroke-width="0.04"/><line x1="1.5" y1="-37.25" x2="1.5" y2="-36.75" stroke="LightBlue" stroke-width="0.04"/><line x1="1.77735" y1="-36.4307" x2="5.22265" y2="-35.5693" stroke="LightBlue" stroke-width="0.04"/><line x1="5.75" y1="-35.625" x2="7.25" y2="-36.375" stroke="LightBlue" stroke-width="0.04"/><line x1="7.75" y1="-36.625" x2="9.25" y2="-37.375" stroke="LightBlue" stroke-width="0.04"/><line x1="9.78347" y1="-37.5473" x2="12.2165" y2="-37.9528" stroke="LightBlue" stroke-width="0.04"/><line x1="0.688982" y1="-17.189" x2="2.31102" y2="-18.811" stroke="LightGreen" stroke-width="0.04"/><line x1="0.644338" y1="-16.7835" x2="1.35566" y2="-15.7165" stroke="LightGreen" stroke-width="0.04"/><line x1="1.64434" y1="-15.2835" x2="2.35566" y2="-14.2165" stroke="LightGreen" stroke-width="0.04"/><line x1="2.75" y1="-13.875" x2="3.25" y2="-13.625" stroke="LightGreen" stroke-width="0.04"/><line x1="3.78868" y1="-13.5" x2="5.21133" y2="-13.5" stroke="LightGreen" stroke-width="0.04"/><line x1="1.78347" y1="-15.5473" x2="4.21653" y2="-15.9528" stroke="LightGreen" stroke-width="0.04"/><line x1="4.75" y1="-16.125" x2="5.25" y2="-16.375" stroke="LightGreen" stroke-width="0.04"/></g><g transform="translate(2.5,-17) scale(1.1547 1)"><text font-family="Courier New" font-size="0.35" font-weight="bold" text-decoration="underline" text-anchor="middle" x="0" y="-0.0494922" fill="Cyan">DARRIAN</text><text font-family="Courier New" font-size="0.35" font-weight="bold" text-decoration="underline" text-anchor="middle" x="0" y="0.346992" fill="Cyan">CONFEDERATION</text></g><g transform="translate(11.5,-13.5) scale(1.1547 1)"><text font-family="Courier New" font-size="0.35" font-weight="bold" text-decoration="underline" text-anchor="middle" x="0" y="-0.247734" fill="Cyan">SWORD</text><text font-family="Courier New" font-size="0.35" font-weight="bold" text-decoration="underline" text-anchor="middle" x="0" y="0.14875" fill="Cyan">WORLDS</text><text font-family="Courier New" font-size="0.35" font-weight="bold" text-decoration="underline" text-anchor="middle" x="0" y="0.545234" fill="Cyan">CONFEDERATION</text></g><g transform="translate(0.5,-35) scale(1.1547 1)"><text font-family="Courier New" font-size="0.35" font-weight="bold" text-decoration="underline" text-anchor="middle" x="0" y="-0.0494922" fill="Cyan">ZHODANI</text><text font-family="Courier New" font-size="0.35" font-weight="bold" text-decoration="underline" text-anchor="middle" x="0" y="0.346992" fill="Cyan">CONSULATE</text></g><text transform="translate(18.5,-19) scale(1.1547 1)" font-family="Courier New" font-size="0.35" font-weight="bold" text-decoration="underline" text-anchor="middle" x="0" y="0.14875" fill="Cyan">THIRD IMPERIUM</text><text transform="translate(1.5,-5.5) scale(1.1547 1)" font-family="Courier New" font-size="0.35" font-weight="bold" text-decoration="underline" text-anchor="middle" x="0" y="0.14875" fill="Cyan">THIRD IMPERIUM</text><g clip-path="url(#did12)"><circle transform="translate(10.5,-2) scale(1.1547 1)" r="0.4" cx="0" cy="0" stroke="Cyan" stroke-width="0.0078125" fill="none"/></g><g transform="translate(7.5,-2.5) scale(1.1547 1)"><g transform="translate(0.25,-0.18)"><circle r="0.05" cx="0" cy="0" stroke="none" fill="Cyan"/><ellipse transform="rotate(-30)" rx="0.0875" ry="0.02" cx="0" cy="0" stroke="Cyan" stroke-width="0.0125" fill="none"/></g><text font-family="Courier New" font-size="0.1575" font-weight="bold" text-anchor="middle" x="0" y="-0.158063" fill="Cyan">D</text><text font-family="Arial" font-size="0.105" text-anchor="middle" x="0" y="0.269625" fill="Cyan">D42035A-A</text><circle r="0.1" cx="0" cy="0" stroke="none" fill="Cyan"/><text font-family="Courier New" font-size="0.126" font-weight="bold" text-anchor="middle" x="0" y="0.42355" fill="Cyan">INCHIN</text><text font-family="Courier New" font-size="0.105" text-anchor="middle" x="0.25" y="0.144625" fill="Cyan">NaHu</text></g><g transform="translate(8.5,-3) scale(1.1547 1)"><g transform="translate(0.25,-0.18)"><circle r="0.05" cx="0" cy="0" stroke="none" fill="Cyan"/><ellipse transform="rotate(-30)" rx="0.0875" ry="0.02" cx="0" cy="0" stroke="Cyan" stroke-width="0.0125" fill="none"/></g><text font-family="Courier New" font-size="0.1575" font-weight="bold" text-anchor="middle" x="0" y="-0.158063" fill="Cyan">C</text><text font-family="Arial" font-size="0.105" text-anchor="middle" x="0" y="0.269625" fill="Cyan">C433520-A</text><circle r="0.1" cx="0" cy="0" stroke="Cyan" stroke-width="0.015625" fill="none"/><text font-family="Courier New" font-size="0.126" font-weight="bold" text-anchor="middle" x="0" y="0.42355" fill="Cyan">AVASTAN</text><text font-family="Courier New" font-size="0.105" text-anchor="middle" x="0.25" y="0.144625" fill="Cyan">NaHu</text></g><g transform="translate(9.5,-2.5) scale(1.1547 1)"><g transform="translate(0.25,-0.18)"><circle r="0.05" cx="0" cy="0" stroke="none" fill="Cyan"/><ellipse transform="rotate(-30)" rx="0.0875" ry="0.02" cx="0" cy="0" stroke="Cyan" stroke-width="0.0125" fill="none"/></g><text font-family="Courier New" font-size="0.1575" font-weight="bold" text-anchor="middle" x="0" y="-0.158063" fill="Cyan">B</text><text font-family="Arial" font-size="0.105" text-anchor="middle" x="0" y="0.269625" fill="Cyan">B584620-A</text><circle r="0.1" cx="0" cy="0" stroke="Cyan" stroke-width="0.015625" fill="none"/><text font-family="Courier New" font-size="0.126" font-weight="bold" text-anchor="middle" x="0" y="0.42355" fill="Cyan">TARSUS</text><text font-family="Courier New" font-size="0.105" text-anchor="middle" x="0.25" y="0.144625" fill="Cyan">CsIm</text></g><g transform="translate(10.5,-3) scale(1.1547 1)"><g transform="translate(0.25,-0.18)"><circle r="0.05" cx="0" cy="0" stroke="none" fill="Cyan"/><ellipse transform="rotate(-30)" rx="0.0875" ry="0.02" cx="0" cy="0" stroke="Cyan" stroke-width="0.0125" fill="none"/></g><text font-family="Courier New" font-size="0.1575" font-weight="bold" text-anchor="middle" x="0" y="-0.158063" fill="Cyan">B</text><text font-family="Arial" font-size="0.105" text-anchor="middle" x="0" y="0.269625" fill="Cyan">B628943-D</text><text font-family="Arial Unicode MS,Segoe UI Symbol,Arial" font-size="0.1575" font-weight="bold" text-anchor="middle" x="-0.25" y="0.166938" fill="Cyan"></text><circle r="0.1" cx="0" cy="0" stroke="Cyan" stroke-width="0.015625" fill="none"/><text font-family="Courier New" font-size="0.196875" font-weight="bold" text-decoration="underline" text-anchor="middle" x="0" y="0.453672" fill="Cyan">COLLACE</text><text font-family="Courier New" font-size="0.105" text-anchor="middle" x="0.25" y="0.144625" fill="Cyan">CsIm</text></g><g transform="translate(10.5,-2) scale(1.1547 1)"><g transform="translate(0.25,-0.18)"><circle r="0.05" cx="0" cy="0" stroke="none" fill="Cyan"/><ellipse transform="rotate(-30)" rx="0.0875" ry="0.02" cx="0" cy="0" stroke="Cyan" stroke-width="0.0125" fill="none"/></g><text font-family="Courier New" font-size="0.1575" font-weight="bold" text-anchor="middle" x="0" y="-0.158063" fill="Cyan">C</text><text font-family="Arial" font-size="0.105" text-anchor="middle" x="0" y="0.269625" fill="Cyan">C6678D8-6</text><circle r="0.1" cx="0" cy="0" stroke="Cyan" stroke-width="0.015625" fill="none"/><text font-family="Courier New" font-size="0.126" font-weight="bold" text-anchor="middle" x="0" y="0.42355" fill="Cyan">PAVABID</text><text font-family="Courier New" font-size="0.105" text-anchor="middle" x="0.25" y="0.144625" fill="Cyan">NaHu</text></g><g transform="translate(11.5,-3.5) scale(1.1547 1)"><g transform="translate(0.25,-0.18)"><circle r="0.05" cx="0" cy="0" stroke="none" fill="Cyan"/><ellipse transform="rotate(-30)" rx="0.0875" ry="0.02" cx="0" cy="0" stroke="Cyan" stroke-width="0.0125" fill="none"/></g><text font-family="Courier New" font-size="0.1575" font-weight="bold" text-anchor="middle" x="0" y="-0.158063" fill="Cyan">E</text><text font-family="Arial" font-size="0.105" text-anchor="middle" x="0" y="0.269625" fill="Cyan">E9B2000-0</text><text font-family="Arial Unicode MS,Segoe UI Symbol,Arial" font-size="0.1575" font-weight="bold" text-anchor="middle" x="-0.35" y="0.0269375" fill="White"></text><circle r="0.1" cx="0" cy="0" stroke="none" fill="Cyan"/><text font-family="Courier New" font-size="0.126" font-weight="bold" text-anchor="middle" x="0" y="0.42355" fill="Cyan">JUDICE</text><text font-family="Courier New" font-size="0.105" text-anchor="middle" x="0.25" y="0.144625" fill="Cyan">CsIm</text></g><g transform="translate(11.5,-1.5) scale(1.1547 1)"><g transform="translate(0.25,-0.18)"><circle r="0.05" cx="0" cy="0" stroke="none" fill="Cyan"/><ellipse transform="rotate(-30)" rx="0.0875" ry="0.02" cx="0" cy="0" stroke="Cyan" stroke-width="0.0125" fill="none"/></g><text font-family="Courier New" font-size="0.1575" font-weight="bold" text-anchor="middle" x="0" y="-0.158063" fill="Cyan">B</text><text font-family="Arial" font-size="0.105" text-anchor="middle" x="0" y="0.269625" fill="Cyan">B561851-C</text><circle r="0.1" cx="0" cy="0" stroke="Cyan" stroke-width="0.015625" fill="none"/><text font-family="Courier New" font-size="0.126" font-weight="bold" text-anchor="middle" x="0" y="0.42355" fill="Cyan">TREXALON</text><text font-family="Courier New" font-size="0.105" text-anchor="middle" x="0.25" y="0.144625" fill="Cyan">NaHu</text></g><g transform="translate(11.5,-0.5) scale(1.1547 1)"><text font-family="Courier New" font-size="0.1575" font-weight="bold" text-anchor="middle" x="0" y="-0.158063" fill="Cyan">B</text><text font-family="Arial" font-size="0.105" text-anchor="middle" x="0" y="0.269625" fill="Cyan">B68468B-5</text><text font-family="Arial Unicode MS,Segoe UI Symbol,Arial" font-size="0.1575" font-weight="bold" text-anchor="middle" x="-0.25" y="-0.113063" fill="Cyan"></text><circle r="0.1" cx="0" cy="0" stroke="Cyan" stroke-width="0.015625" fill="none"/><text font-family="Courier New" font-size="0.126" font-weight="bold" text-anchor="middle" x="0" y="0.42355" fill="Cyan">MOTMOS</text><text font-family="Courier New" font-size="0.105" text-anchor="middle" x="0.25" y="0.144625" fill="Cyan">CsIm</text></g><g transform="translate(12.5,-5) scale(1.1547 1)"><text font-family="Courier New" font-size="0.1575" font-weight="bold" text-anchor="middle" x="0" y="-0.158063" fill="Cyan">B</text><text font-family="Arial" font-size="0.105" text-anchor="middle" x="0" y="0.269625" fill="Cyan">B885883-9</text><circle r="0.1" cx="0" cy="0" stroke="Cyan" stroke-width="0.015625" fill="none"/><text font-family="Courier New" font-size="0.126" font-weight="bold" text-anchor="middle" x="0" y="0.42355" fill="Cyan">DALLIA</text><text font-family="Courier New" font-size="0.105" text-anchor="middle" x="0.25" y="0.144625" fill="Cyan">CsIm</text></g><g transform="translate(12.5,-4) scale(1.1547 1)"><text font-family="Courier New" font-size="0.1575" font-weight="bold" text-anchor="middle" x="0" y="-0.158063" fill="Cyan">E</text><text font-family="Arial" font-size="0.105" text-anchor="middle" x="0" y="0.269625" fill="Cyan">E433532-9</text><circle r="0.1" cx="0" cy="0" stroke="Cyan" stroke-width="0.015625" fill="none"/><text font-family="Courier New" font-size="0.126" font-weight="bold" text-anchor="middle" x="0" y="0.42355" fill="Cyan">TALOS</text><text font-family="Courier New" font-size="0.105" text-anchor="middle" x="0.25" y="0.144625" fill="Cyan">NaHu</text></g><g transform="translate(13.5,-3.5) scale(1.1547 1)"><text font-family="Courier New" font-size="0.1575" font-weight="bold" text-anchor="middle" x="0" y="-0.158063" fill="Cyan">B</text><text font-family="Arial" font-size="0.105" text-anchor="middle" x="0" y="0.269625" fill="Cyan">B562732-B</text><text font-family="Arial Unicode MS,Segoe UI Symbol,Arial" font-size="0.1575" font-weight="bold" text-anchor="middle" x="-0.25" y="0.166938" fill="Cyan"></text><circle r="0.1" cx="0" cy="0" stroke="Cyan" stroke-width="0.015625" fill="none"/><text font-family="Courier New" font-size="0.126" font-weight="bold" text-anchor="middle" x="0" y="0.42355" fill="Cyan">MERTACTOR</text></g></g></g></svg>